<?xml version="1.0" encoding="utf-8" standalone="no"?>
<!DOCTYPE svg PUBLIC "-//W3C//DTD SVG 1.1//EN"
  "http://www.w3.org/Graphics/SVG/1.1/DTD/svg11.dtd">
<svg xmlns:xlink="http://www.w3.org/1999/xlink" width="352.46894pt" height="208.8pt" viewBox="0 0 352.46894 208.8" xmlns="http://www.w3.org/2000/svg" version="1.1">
 <metadata>
  <rdf:RDF xmlns:dc="http://purl.org/dc/elements/1.1/" xmlns:cc="http://creativecommons.org/ns#" xmlns:rdf="http://www.w3.org/1999/02/22-rdf-syntax-ns#">
   <cc:Work>
    <dc:type rdf:resource="http://purl.org/dc/dcmitype/StillImage"/>
    <dc:date>2026-06-23T07:34:46.866899</dc:date>
    <dc:format>image/svg+xml</dc:format>
    <dc:creator>
     <cc:Agent>
      <dc:title>Matplotlib v3.11.0, https://matplotlib.org/</dc:title>
     </cc:Agent>
    </dc:creator>
   </cc:Work>
  </rdf:RDF>
 </metadata>
 <defs>
  <style type="text/css">*{stroke-linejoin: round; stroke-linecap: butt}</style>
 </defs>
 <g id="figure_1">
  <g id="patch_1">
   <path d="M 0 208.8
L 352.46894 208.8
L 352.46894 0
L 0 0
L 0 208.8
z
" style="fill: none"/>
  </g>
  <g id="axes_1">
   <g id="patch_2">
    <path d="M 44.103906 184.599219
L 326.317544 184.599219
L 326.317544 7.2
L 44.103906 7.2
L 44.103906 184.599219
z
" style="fill: none"/>
   </g>
   <g id="patch_3">
    <path d="M 56.931799 184.599219
L 89.421658 184.599219
L 89.421658 155.87744
L 56.931799 155.87744
z
" clip-path="url(#p14fe27d01e)" style="fill: #3b82f6"/>
   </g>
   <g id="patch_4">
    <path d="M 112.948797 184.599219
L 145.438656 184.599219
L 145.438656 142.36131
L 112.948797 142.36131
z
" clip-path="url(#p14fe27d01e)" style="fill: #3b82f6"/>
   </g>
   <g id="patch_5">
    <path d="M 168.965796 184.599219
L 201.455655 184.599219
L 201.455655 135.603244
L 168.965796 135.603244
z
" clip-path="url(#p14fe27d01e)" style="fill: #3b82f6"/>
   </g>
   <g id="patch_6">
    <path d="M 224.982794 184.599219
L 257.472653 184.599219
L 257.472653 132.224211
L 224.982794 132.224211
z
" clip-path="url(#p14fe27d01e)" style="fill: #3b82f6"/>
   </g>
   <g id="patch_7">
    <path d="M 280.999792 184.599219
L 313.489651 184.599219
L 313.489651 129.689937
L 280.999792 129.689937
z
" clip-path="url(#p14fe27d01e)" style="fill: #3b82f6"/>
   </g>
   <g id="patch_8">
    <path d="M 56.931799 155.87744
L 89.421658 155.87744
L 89.421658 147.429859
L 56.931799 147.429859
z
" clip-path="url(#p14fe27d01e)" style="fill: #f59e0b"/>
   </g>
   <g id="patch_9">
    <path d="M 112.948797 142.36131
L 145.438656 142.36131
L 145.438656 125.466146
L 112.948797 125.466146
z
" clip-path="url(#p14fe27d01e)" style="fill: #f59e0b"/>
   </g>
   <g id="patch_10">
    <path d="M 168.965796 135.603244
L 201.455655 135.603244
L 201.455655 108.570982
L 168.965796 108.570982
z
" clip-path="url(#p14fe27d01e)" style="fill: #f59e0b"/>
   </g>
   <g id="patch_11">
    <path d="M 224.982794 132.224211
L 257.472653 132.224211
L 257.472653 88.296786
L 224.982794 88.296786
z
" clip-path="url(#p14fe27d01e)" style="fill: #f59e0b"/>
   </g>
   <g id="patch_12">
    <path d="M 280.999792 129.689937
L 313.489651 129.689937
L 313.489651 66.333073
L 280.999792 66.333073
z
" clip-path="url(#p14fe27d01e)" style="fill: #f59e0b"/>
   </g>
   <g id="patch_13">
    <path d="M 56.931799 147.429859
L 89.421658 147.429859
L 89.421658 142.36131
L 56.931799 142.36131
z
" clip-path="url(#p14fe27d01e)" style="fill: #9ca3af"/>
   </g>
   <g id="patch_14">
    <path d="M 112.948797 125.466146
L 145.438656 125.466146
L 145.438656 117.018564
L 112.948797 117.018564
z
" clip-path="url(#p14fe27d01e)" style="fill: #9ca3af"/>
   </g>
   <g id="patch_15">
    <path d="M 168.965796 108.570982
L 201.455655 108.570982
L 201.455655 91.675818
L 168.965796 91.675818
z
" clip-path="url(#p14fe27d01e)" style="fill: #9ca3af"/>
   </g>
   <g id="patch_16">
    <path d="M 224.982794 88.296786
L 257.472653 88.296786
L 257.472653 57.885491
L 224.982794 57.885491
z
" clip-path="url(#p14fe27d01e)" style="fill: #9ca3af"/>
   </g>
   <g id="patch_17">
    <path d="M 280.999792 66.333073
L 313.489651 66.333073
L 313.489651 15.647582
L 280.999792 15.647582
z
" clip-path="url(#p14fe27d01e)" style="fill: #9ca3af"/>
   </g>
   <g id="matplotlib.axis_1">
    <g id="xtick_1">
     <g id="line2d_1">
      <defs>
       <path id="m632e81450a" d="M 0 0
L 0 3.5
" style="stroke: #6b7280; stroke-width: 0.8"/>
      </defs>
      <g>
       <use xlink:href="#m632e81450a" x="73.176728" y="184.599219" style="fill: #6b7280; stroke: #6b7280; stroke-width: 0.8"/>
      </g>
     </g>
     <g id="text_1">
      <!-- routine -->
      <g style="fill: #6b7280" transform="translate(55.40876 199.197656) scale(0.1 -0.1)">
       <defs>
        <path id="DejaVuSans-55" d="M 2631 2963
Q 2534 3019 2420 3045
Q 2306 3072 2169 3072
Q 1681 3072 1420 2755
Q 1159 2438 1159 1844
L 1159 0
L 581 0
L 581 3500
L 1159 3500
L 1159 2956
Q 1341 3275 1631 3429
Q 1922 3584 2338 3584
Q 2397 3584 2469 3576
Q 2541 3569 2628 3553
L 2631 2963
z
" transform="scale(0.015625)"/>
        <path id="DejaVuSans-52" d="M 1959 3097
Q 1497 3097 1228 2736
Q 959 2375 959 1747
Q 959 1119 1226 758
Q 1494 397 1959 397
Q 2419 397 2687 759
Q 2956 1122 2956 1747
Q 2956 2369 2687 2733
Q 2419 3097 1959 3097
z
M 1959 3584
Q 2709 3584 3137 3096
Q 3566 2609 3566 1747
Q 3566 888 3137 398
Q 2709 -91 1959 -91
Q 1206 -91 779 398
Q 353 888 353 1747
Q 353 2609 779 3096
Q 1206 3584 1959 3584
z
" transform="scale(0.015625)"/>
        <path id="DejaVuSans-58" d="M 544 1381
L 544 3500
L 1119 3500
L 1119 1403
Q 1119 906 1312 657
Q 1506 409 1894 409
Q 2359 409 2629 706
Q 2900 1003 2900 1516
L 2900 3500
L 3475 3500
L 3475 0
L 2900 0
L 2900 538
Q 2691 219 2414 64
Q 2138 -91 1772 -91
Q 1169 -91 856 284
Q 544 659 544 1381
z
M 1991 3584
L 1991 3584
z
" transform="scale(0.015625)"/>
        <path id="DejaVuSans-57" d="M 1172 4494
L 1172 3500
L 2356 3500
L 2356 3053
L 1172 3053
L 1172 1153
Q 1172 725 1289 603
Q 1406 481 1766 481
L 2356 481
L 2356 0
L 1766 0
Q 1100 0 847 248
Q 594 497 594 1153
L 594 3053
L 172 3053
L 172 3500
L 594 3500
L 594 4494
L 1172 4494
z
" transform="scale(0.015625)"/>
        <path id="DejaVuSans-4c" d="M 603 3500
L 1178 3500
L 1178 0
L 603 0
L 603 3500
z
M 603 4863
L 1178 4863
L 1178 4134
L 603 4134
L 603 4863
z
" transform="scale(0.015625)"/>
        <path id="DejaVuSans-51" d="M 3513 2113
L 3513 0
L 2938 0
L 2938 2094
Q 2938 2591 2744 2837
Q 2550 3084 2163 3084
Q 1697 3084 1428 2787
Q 1159 2491 1159 1978
L 1159 0
L 581 0
L 581 3500
L 1159 3500
L 1159 2956
Q 1366 3272 1645 3428
Q 1925 3584 2291 3584
Q 2894 3584 3203 3211
Q 3513 2838 3513 2113
z
" transform="scale(0.015625)"/>
        <path id="DejaVuSans-48" d="M 3597 1894
L 3597 1613
L 953 1613
Q 991 1019 1311 708
Q 1631 397 2203 397
Q 2534 397 2845 478
Q 3156 559 3463 722
L 3463 178
Q 3153 47 2828 -22
Q 2503 -91 2169 -91
Q 1331 -91 842 396
Q 353 884 353 1716
Q 353 2575 817 3079
Q 1281 3584 2069 3584
Q 2775 3584 3186 3129
Q 3597 2675 3597 1894
z
M 3022 2063
Q 3016 2534 2758 2815
Q 2500 3097 2075 3097
Q 1594 3097 1305 2825
Q 1016 2553 972 2059
L 3022 2063
z
" transform="scale(0.015625)"/>
       </defs>
       <use xlink:href="#DejaVuSans-55"/>
       <use xlink:href="#DejaVuSans-52" transform="translate(38.90625 0)"/>
       <use xlink:href="#DejaVuSans-58" transform="translate(100.09375 0)"/>
       <use xlink:href="#DejaVuSans-57" transform="translate(163.46875 0)"/>
       <use xlink:href="#DejaVuSans-4c" transform="translate(202.671875 0)"/>
       <use xlink:href="#DejaVuSans-51" transform="translate(230.453125 0)"/>
       <use xlink:href="#DejaVuSans-48" transform="translate(293.828125 0)"/>
      </g>
     </g>
    </g>
    <g id="xtick_2">
     <g id="line2d_2">
      <g>
       <use xlink:href="#m632e81450a" x="129.193727" y="184.599219" style="fill: #6b7280; stroke: #6b7280; stroke-width: 0.8"/>
      </g>
     </g>
     <g id="text_2">
      <!-- formal -->
      <g style="fill: #6b7280" transform="translate(113.082789 199.197656) scale(0.1 -0.1)">
       <defs>
        <path id="DejaVuSans-49" d="M 2375 4863
L 2375 4384
L 1825 4384
Q 1516 4384 1395 4259
Q 1275 4134 1275 3809
L 1275 3500
L 2222 3500
L 2222 3053
L 1275 3053
L 1275 0
L 697 0
L 697 3053
L 147 3053
L 147 3500
L 697 3500
L 697 3744
Q 697 4328 969 4595
Q 1241 4863 1831 4863
L 2375 4863
z
" transform="scale(0.015625)"/>
        <path id="DejaVuSans-50" d="M 3328 2828
Q 3544 3216 3844 3400
Q 4144 3584 4550 3584
Q 5097 3584 5394 3201
Q 5691 2819 5691 2113
L 5691 0
L 5113 0
L 5113 2094
Q 5113 2597 4934 2840
Q 4756 3084 4391 3084
Q 3944 3084 3684 2787
Q 3425 2491 3425 1978
L 3425 0
L 2847 0
L 2847 2094
Q 2847 2600 2669 2842
Q 2491 3084 2119 3084
Q 1678 3084 1418 2786
Q 1159 2488 1159 1978
L 1159 0
L 581 0
L 581 3500
L 1159 3500
L 1159 2956
Q 1356 3278 1631 3431
Q 1906 3584 2284 3584
Q 2666 3584 2933 3390
Q 3200 3197 3328 2828
z
" transform="scale(0.015625)"/>
        <path id="DejaVuSans-44" d="M 2194 1759
Q 1497 1759 1228 1600
Q 959 1441 959 1056
Q 959 750 1161 570
Q 1363 391 1709 391
Q 2188 391 2477 730
Q 2766 1069 2766 1631
L 2766 1759
L 2194 1759
z
M 3341 1997
L 3341 0
L 2766 0
L 2766 531
Q 2569 213 2275 61
Q 1981 -91 1556 -91
Q 1019 -91 701 211
Q 384 513 384 1019
Q 384 1609 779 1909
Q 1175 2209 1959 2209
L 2766 2209
L 2766 2266
Q 2766 2663 2505 2880
Q 2244 3097 1772 3097
Q 1472 3097 1187 3025
Q 903 2953 641 2809
L 641 3341
Q 956 3463 1253 3523
Q 1550 3584 1831 3584
Q 2591 3584 2966 3190
Q 3341 2797 3341 1997
z
" transform="scale(0.015625)"/>
        <path id="DejaVuSans-4f" d="M 603 4863
L 1178 4863
L 1178 0
L 603 0
L 603 4863
z
" transform="scale(0.015625)"/>
       </defs>
       <use xlink:href="#DejaVuSans-49"/>
       <use xlink:href="#DejaVuSans-52" transform="translate(35.203125 0)"/>
       <use xlink:href="#DejaVuSans-55" transform="translate(96.390625 0)"/>
       <use xlink:href="#DejaVuSans-50" transform="translate(135.75 0)"/>
       <use xlink:href="#DejaVuSans-44" transform="translate(233.15625 0)"/>
       <use xlink:href="#DejaVuSans-4f" transform="translate(294.4375 0)"/>
      </g>
     </g>
    </g>
    <g id="xtick_3">
     <g id="line2d_3">
      <g>
       <use xlink:href="#m632e81450a" x="185.210725" y="184.599219" style="fill: #6b7280; stroke: #6b7280; stroke-width: 0.8"/>
      </g>
     </g>
     <g id="text_3">
      <!-- assisted -->
      <g style="fill: #6b7280" transform="translate(164.7326 199.197656) scale(0.1 -0.1)">
       <defs>
        <path id="DejaVuSans-56" d="M 2834 3397
L 2834 2853
Q 2591 2978 2328 3040
Q 2066 3103 1784 3103
Q 1356 3103 1142 2972
Q 928 2841 928 2578
Q 928 2378 1081 2264
Q 1234 2150 1697 2047
L 1894 2003
Q 2506 1872 2764 1633
Q 3022 1394 3022 966
Q 3022 478 2636 193
Q 2250 -91 1575 -91
Q 1294 -91 989 -36
Q 684 19 347 128
L 347 722
Q 666 556 975 473
Q 1284 391 1588 391
Q 1994 391 2212 530
Q 2431 669 2431 922
Q 2431 1156 2273 1281
Q 2116 1406 1581 1522
L 1381 1569
Q 847 1681 609 1914
Q 372 2147 372 2553
Q 372 3047 722 3315
Q 1072 3584 1716 3584
Q 2034 3584 2315 3537
Q 2597 3491 2834 3397
z
" transform="scale(0.015625)"/>
        <path id="DejaVuSans-47" d="M 2906 2969
L 2906 4863
L 3481 4863
L 3481 0
L 2906 0
L 2906 525
Q 2725 213 2448 61
Q 2172 -91 1784 -91
Q 1150 -91 751 415
Q 353 922 353 1747
Q 353 2572 751 3078
Q 1150 3584 1784 3584
Q 2172 3584 2448 3432
Q 2725 3281 2906 2969
z
M 947 1747
Q 947 1113 1208 752
Q 1469 391 1925 391
Q 2381 391 2643 752
Q 2906 1113 2906 1747
Q 2906 2381 2643 2742
Q 2381 3103 1925 3103
Q 1469 3103 1208 2742
Q 947 2381 947 1747
z
" transform="scale(0.015625)"/>
       </defs>
       <use xlink:href="#DejaVuSans-44"/>
       <use xlink:href="#DejaVuSans-56" transform="translate(61.28125 0)"/>
       <use xlink:href="#DejaVuSans-56" transform="translate(113.375 0)"/>
       <use xlink:href="#DejaVuSans-4c" transform="translate(165.46875 0)"/>
       <use xlink:href="#DejaVuSans-56" transform="translate(193.25 0)"/>
       <use xlink:href="#DejaVuSans-57" transform="translate(245.34375 0)"/>
       <use xlink:href="#DejaVuSans-48" transform="translate(284.546875 0)"/>
       <use xlink:href="#DejaVuSans-47" transform="translate(346.078125 0)"/>
      </g>
     </g>
    </g>
    <g id="xtick_4">
     <g id="line2d_4">
      <g>
       <use xlink:href="#m632e81450a" x="241.227723" y="184.599219" style="fill: #6b7280; stroke: #6b7280; stroke-width: 0.8"/>
      </g>
     </g>
     <g id="text_4">
      <!-- empirical -->
      <g style="fill: #6b7280" transform="translate(218.070692 199.197656) scale(0.1 -0.1)">
       <defs>
        <path id="DejaVuSans-53" d="M 1159 525
L 1159 -1331
L 581 -1331
L 581 3500
L 1159 3500
L 1159 2969
Q 1341 3281 1617 3432
Q 1894 3584 2278 3584
Q 2916 3584 3314 3078
Q 3713 2572 3713 1747
Q 3713 922 3314 415
Q 2916 -91 2278 -91
Q 1894 -91 1617 61
Q 1341 213 1159 525
z
M 3116 1747
Q 3116 2381 2855 2742
Q 2594 3103 2138 3103
Q 1681 3103 1420 2742
Q 1159 2381 1159 1747
Q 1159 1113 1420 752
Q 1681 391 2138 391
Q 2594 391 2855 752
Q 3116 1113 3116 1747
z
" transform="scale(0.015625)"/>
        <path id="DejaVuSans-46" d="M 3122 3366
L 3122 2828
Q 2878 2963 2633 3030
Q 2388 3097 2138 3097
Q 1578 3097 1268 2742
Q 959 2388 959 1747
Q 959 1106 1268 751
Q 1578 397 2138 397
Q 2388 397 2633 464
Q 2878 531 3122 666
L 3122 134
Q 2881 22 2623 -34
Q 2366 -91 2075 -91
Q 1284 -91 818 406
Q 353 903 353 1747
Q 353 2603 823 3093
Q 1294 3584 2113 3584
Q 2378 3584 2631 3529
Q 2884 3475 3122 3366
z
" transform="scale(0.015625)"/>
       </defs>
       <use xlink:href="#DejaVuSans-48"/>
       <use xlink:href="#DejaVuSans-50" transform="translate(61.53125 0)"/>
       <use xlink:href="#DejaVuSans-53" transform="translate(158.9375 0)"/>
       <use xlink:href="#DejaVuSans-4c" transform="translate(222.421875 0)"/>
       <use xlink:href="#DejaVuSans-55" transform="translate(250.203125 0)"/>
       <use xlink:href="#DejaVuSans-4c" transform="translate(291.3125 0)"/>
       <use xlink:href="#DejaVuSans-46" transform="translate(319.09375 0)"/>
       <use xlink:href="#DejaVuSans-44" transform="translate(374.078125 0)"/>
       <use xlink:href="#DejaVuSans-4f" transform="translate(435.359375 0)"/>
      </g>
     </g>
    </g>
    <g id="xtick_5">
     <g id="line2d_5">
      <g>
       <use xlink:href="#m632e81450a" x="297.244722" y="184.599219" style="fill: #6b7280; stroke: #6b7280; stroke-width: 0.8"/>
      </g>
     </g>
     <g id="text_5">
      <!-- frontier verification -->
      <g style="fill: #6b7280" transform="translate(249.220503 199.197656) scale(0.1 -0.1)">
       <defs>
        <path id="DejaVuSans-3" transform="scale(0.015625)"/>
        <path id="DejaVuSans-59" d="M 191 3500
L 800 3500
L 1894 563
L 2988 3500
L 3597 3500
L 2284 0
L 1503 0
L 191 3500
z
" transform="scale(0.015625)"/>
        <path id="DejaVuSans-13af" d="M 3431 3500
L 3431 0
L 2853 0
L 2853 3053
L 1275 3053
L 1275 0
L 697 0
L 697 3053
L 147 3053
L 147 3500
L 697 3500
L 697 3744
Q 697 4316 967 4589
Q 1238 4863 1797 4863
L 2375 4863
L 2375 4384
L 1825 4384
Q 1516 4384 1395 4259
Q 1275 4134 1275 3809
L 1275 3500
L 3431 3500
z
M 2853 4856
L 3431 4856
L 3431 4128
L 2853 4128
L 2853 4856
z
" transform="scale(0.015625)"/>
       </defs>
       <use xlink:href="#DejaVuSans-49"/>
       <use xlink:href="#DejaVuSans-55" transform="translate(35.203125 0)"/>
       <use xlink:href="#DejaVuSans-52" transform="translate(74.109375 0)"/>
       <use xlink:href="#DejaVuSans-51" transform="translate(135.296875 0)"/>
       <use xlink:href="#DejaVuSans-57" transform="translate(198.671875 0)"/>
       <use xlink:href="#DejaVuSans-4c" transform="translate(237.875 0)"/>
       <use xlink:href="#DejaVuSans-48" transform="translate(265.65625 0)"/>
       <use xlink:href="#DejaVuSans-55" transform="translate(327.1875 0)"/>
       <use xlink:href="#DejaVuSans-3" transform="translate(368.296875 0)"/>
       <use xlink:href="#DejaVuSans-59" transform="translate(400.078125 0)"/>
       <use xlink:href="#DejaVuSans-48" transform="translate(459.265625 0)"/>
       <use xlink:href="#DejaVuSans-55" transform="translate(520.796875 0)"/>
       <use xlink:href="#DejaVuSans-4c" transform="translate(561.90625 0)"/>
       <use xlink:href="#DejaVuSans-13af" transform="translate(589.6875 0)"/>
       <use xlink:href="#DejaVuSans-46" transform="translate(652.671875 0)"/>
       <use xlink:href="#DejaVuSans-44" transform="translate(707.65625 0)"/>
       <use xlink:href="#DejaVuSans-57" transform="translate(768.9375 0)"/>
       <use xlink:href="#DejaVuSans-4c" transform="translate(808.140625 0)"/>
       <use xlink:href="#DejaVuSans-52" transform="translate(835.921875 0)"/>
       <use xlink:href="#DejaVuSans-51" transform="translate(897.109375 0)"/>
      </g>
     </g>
    </g>
   </g>
   <g id="matplotlib.axis_2">
    <g id="ytick_1">
     <g id="line2d_6">
      <defs>
       <path id="me9ae1acc1f" d="M 0 0
L -3.5 0
" style="stroke: #6b7280; stroke-width: 0.8"/>
      </defs>
      <g>
       <use xlink:href="#me9ae1acc1f" x="44.103906" y="184.599219" style="fill: #6b7280; stroke: #6b7280; stroke-width: 0.8"/>
      </g>
     </g>
     <g id="text_6">
      <!-- 0.0 -->
      <g style="fill: #6b7280" transform="translate(21.200781 188.398047) scale(0.1 -0.1)">
       <defs>
        <path id="DejaVuSans-13" d="M 2034 4250
Q 1547 4250 1301 3770
Q 1056 3291 1056 2328
Q 1056 1369 1301 889
Q 1547 409 2034 409
Q 2525 409 2770 889
Q 3016 1369 3016 2328
Q 3016 3291 2770 3770
Q 2525 4250 2034 4250
z
M 2034 4750
Q 2819 4750 3233 4129
Q 3647 3509 3647 2328
Q 3647 1150 3233 529
Q 2819 -91 2034 -91
Q 1250 -91 836 529
Q 422 1150 422 2328
Q 422 3509 836 4129
Q 1250 4750 2034 4750
z
" transform="scale(0.015625)"/>
        <path id="DejaVuSans-11" d="M 684 794
L 1344 794
L 1344 0
L 684 0
L 684 794
z
" transform="scale(0.015625)"/>
       </defs>
       <use xlink:href="#DejaVuSans-13"/>
       <use xlink:href="#DejaVuSans-11" transform="translate(63.625 0)"/>
       <use xlink:href="#DejaVuSans-13" transform="translate(95.40625 0)"/>
      </g>
     </g>
    </g>
    <g id="ytick_2">
     <g id="line2d_7">
      <g>
       <use xlink:href="#me9ae1acc1f" x="44.103906" y="142.36131" style="fill: #6b7280; stroke: #6b7280; stroke-width: 0.8"/>
      </g>
     </g>
     <g id="text_7">
      <!-- 0.5 -->
      <g style="fill: #6b7280" transform="translate(21.200781 146.160138) scale(0.1 -0.1)">
       <defs>
        <path id="DejaVuSans-18" d="M 691 4666
L 3169 4666
L 3169 4134
L 1269 4134
L 1269 2991
Q 1406 3038 1543 3061
Q 1681 3084 1819 3084
Q 2600 3084 3056 2656
Q 3513 2228 3513 1497
Q 3513 744 3044 326
Q 2575 -91 1722 -91
Q 1428 -91 1123 -41
Q 819 9 494 109
L 494 744
Q 775 591 1075 516
Q 1375 441 1709 441
Q 2250 441 2565 725
Q 2881 1009 2881 1497
Q 2881 1984 2565 2268
Q 2250 2553 1709 2553
Q 1456 2553 1204 2497
Q 953 2441 691 2322
L 691 4666
z
" transform="scale(0.015625)"/>
       </defs>
       <use xlink:href="#DejaVuSans-13"/>
       <use xlink:href="#DejaVuSans-11" transform="translate(63.625 0)"/>
       <use xlink:href="#DejaVuSans-18" transform="translate(95.40625 0)"/>
      </g>
     </g>
    </g>
    <g id="ytick_3">
     <g id="line2d_8">
      <g>
       <use xlink:href="#me9ae1acc1f" x="44.103906" y="100.1234" style="fill: #6b7280; stroke: #6b7280; stroke-width: 0.8"/>
      </g>
     </g>
     <g id="text_8">
      <!-- 1.0 -->
      <g style="fill: #6b7280" transform="translate(21.200781 103.922228) scale(0.1 -0.1)">
       <defs>
        <path id="DejaVuSans-14" d="M 794 531
L 1825 531
L 1825 4091
L 703 3866
L 703 4441
L 1819 4666
L 2450 4666
L 2450 531
L 3481 531
L 3481 0
L 794 0
L 794 531
z
" transform="scale(0.015625)"/>
       </defs>
       <use xlink:href="#DejaVuSans-14"/>
       <use xlink:href="#DejaVuSans-11" transform="translate(63.625 0)"/>
       <use xlink:href="#DejaVuSans-13" transform="translate(95.40625 0)"/>
      </g>
     </g>
    </g>
    <g id="ytick_4">
     <g id="line2d_9">
      <g>
       <use xlink:href="#me9ae1acc1f" x="44.103906" y="57.885491" style="fill: #6b7280; stroke: #6b7280; stroke-width: 0.8"/>
      </g>
     </g>
     <g id="text_9">
      <!-- 1.5 -->
      <g style="fill: #6b7280" transform="translate(21.200781 61.684319) scale(0.1 -0.1)">
       <use xlink:href="#DejaVuSans-14"/>
       <use xlink:href="#DejaVuSans-11" transform="translate(63.625 0)"/>
       <use xlink:href="#DejaVuSans-18" transform="translate(95.40625 0)"/>
      </g>
     </g>
    </g>
    <g id="ytick_5">
     <g id="line2d_10">
      <g>
       <use xlink:href="#me9ae1acc1f" x="44.103906" y="15.647582" style="fill: #6b7280; stroke: #6b7280; stroke-width: 0.8"/>
      </g>
     </g>
     <g id="text_10">
      <!-- 2.0 -->
      <g style="fill: #6b7280" transform="translate(21.200781 19.44641) scale(0.1 -0.1)">
       <defs>
        <path id="DejaVuSans-15" d="M 1228 531
L 3431 531
L 3431 0
L 469 0
L 469 531
Q 828 903 1448 1529
Q 2069 2156 2228 2338
Q 2531 2678 2651 2914
Q 2772 3150 2772 3378
Q 2772 3750 2511 3984
Q 2250 4219 1831 4219
Q 1534 4219 1204 4116
Q 875 4013 500 3803
L 500 4441
Q 881 4594 1212 4672
Q 1544 4750 1819 4750
Q 2544 4750 2975 4387
Q 3406 4025 3406 3419
Q 3406 3131 3298 2873
Q 3191 2616 2906 2266
Q 2828 2175 2409 1742
Q 1991 1309 1228 531
z
" transform="scale(0.015625)"/>
       </defs>
       <use xlink:href="#DejaVuSans-15"/>
       <use xlink:href="#DejaVuSans-11" transform="translate(63.625 0)"/>
       <use xlink:href="#DejaVuSans-13" transform="translate(95.40625 0)"/>
      </g>
     </g>
    </g>
    <g id="text_11">
     <!-- relative claim flow -->
     <g style="fill: #6b7280" transform="translate(14.798438 141.697266) rotate(-90) scale(0.1 -0.1)">
      <defs>
       <path id="DejaVuSans-13b0" d="M 1831 4863
L 3431 4863
L 3431 0
L 2853 0
L 2853 4384
L 1825 4384
Q 1516 4384 1395 4259
Q 1275 4134 1275 3809
L 1275 3500
L 2222 3500
L 2222 3053
L 1275 3053
L 1275 0
L 697 0
L 697 3053
L 147 3053
L 147 3500
L 697 3500
L 697 3744
Q 697 4328 969 4595
Q 1241 4863 1831 4863
z
" transform="scale(0.015625)"/>
       <path id="DejaVuSans-5a" d="M 269 3500
L 844 3500
L 1563 769
L 2278 3500
L 2956 3500
L 3675 769
L 4391 3500
L 4966 3500
L 4050 0
L 3372 0
L 2619 2869
L 1863 0
L 1184 0
L 269 3500
z
" transform="scale(0.015625)"/>
      </defs>
      <use xlink:href="#DejaVuSans-55"/>
      <use xlink:href="#DejaVuSans-48" transform="translate(38.90625 0)"/>
      <use xlink:href="#DejaVuSans-4f" transform="translate(100.4375 0)"/>
      <use xlink:href="#DejaVuSans-44" transform="translate(128.21875 0)"/>
      <use xlink:href="#DejaVuSans-57" transform="translate(189.5 0)"/>
      <use xlink:href="#DejaVuSans-4c" transform="translate(228.703125 0)"/>
      <use xlink:href="#DejaVuSans-59" transform="translate(256.484375 0)"/>
      <use xlink:href="#DejaVuSans-48" transform="translate(315.671875 0)"/>
      <use xlink:href="#DejaVuSans-3" transform="translate(377.203125 0)"/>
      <use xlink:href="#DejaVuSans-46" transform="translate(408.984375 0)"/>
      <use xlink:href="#DejaVuSans-4f" transform="translate(463.96875 0)"/>
      <use xlink:href="#DejaVuSans-44" transform="translate(491.75 0)"/>
      <use xlink:href="#DejaVuSans-4c" transform="translate(553.03125 0)"/>
      <use xlink:href="#DejaVuSans-50" transform="translate(580.8125 0)"/>
      <use xlink:href="#DejaVuSans-3" transform="translate(678.21875 0)"/>
      <use xlink:href="#DejaVuSans-13b0" transform="translate(710 0)"/>
      <use xlink:href="#DejaVuSans-52" transform="translate(772.984375 0)"/>
      <use xlink:href="#DejaVuSans-5a" transform="translate(834.171875 0)"/>
     </g>
    </g>
   </g>
   <g id="patch_18">
    <path d="M 44.103906 184.599219
L 44.103906 7.2
" style="fill: none; stroke: #6b7280; stroke-width: 0.8; stroke-linejoin: miter; stroke-linecap: square"/>
   </g>
   <g id="patch_19">
    <path d="M 44.103906 184.599219
L 326.317544 184.599219
" style="fill: none; stroke: #6b7280; stroke-width: 0.8; stroke-linejoin: miter; stroke-linecap: square"/>
   </g>
   <g id="legend_1">
    <g id="patch_20">
     <path d="M 229.815044 20.47875
L 245.815044 20.47875
L 245.815044 14.87875
L 229.815044 14.87875
z
" style="fill: #3b82f6"/>
    </g>
    <g id="text_12">
     <!-- accepted -->
     <g style="fill: #6b7280" transform="translate(252.215044 20.47875) scale(0.08 -0.08)">
      <use xlink:href="#DejaVuSans-44"/>
      <use xlink:href="#DejaVuSans-46" transform="translate(61.28125 0)"/>
      <use xlink:href="#DejaVuSans-46" transform="translate(116.265625 0)"/>
      <use xlink:href="#DejaVuSans-48" transform="translate(171.25 0)"/>
      <use xlink:href="#DejaVuSans-53" transform="translate(232.78125 0)"/>
      <use xlink:href="#DejaVuSans-57" transform="translate(296.265625 0)"/>
      <use xlink:href="#DejaVuSans-48" transform="translate(335.46875 0)"/>
      <use xlink:href="#DejaVuSans-47" transform="translate(397 0)"/>
     </g>
    </g>
    <g id="patch_21">
     <path d="M 229.815044 32.479375
L 245.815044 32.479375
L 245.815044 26.879375
L 229.815044 26.879375
z
" style="fill: #f59e0b"/>
    </g>
    <g id="text_13">
     <!-- deferred -->
     <g style="fill: #6b7280" transform="translate(252.215044 32.479375) scale(0.08 -0.08)">
      <use xlink:href="#DejaVuSans-47"/>
      <use xlink:href="#DejaVuSans-48" transform="translate(63.484375 0)"/>
      <use xlink:href="#DejaVuSans-49" transform="translate(125.015625 0)"/>
      <use xlink:href="#DejaVuSans-48" transform="translate(160.21875 0)"/>
      <use xlink:href="#DejaVuSans-55" transform="translate(221.75 0)"/>
      <use xlink:href="#DejaVuSans-55" transform="translate(261.109375 0)"/>
      <use xlink:href="#DejaVuSans-48" transform="translate(300.015625 0)"/>
      <use xlink:href="#DejaVuSans-47" transform="translate(361.546875 0)"/>
     </g>
    </g>
    <g id="patch_22">
     <path d="M 229.815044 44.48
L 245.815044 44.48
L 245.815044 38.88
L 229.815044 38.88
z
" style="fill: #9ca3af"/>
    </g>
    <g id="text_14">
     <!-- unsafe to accept -->
     <g style="fill: #6b7280" transform="translate(252.215044 44.48) scale(0.08 -0.08)">
      <use xlink:href="#DejaVuSans-58"/>
      <use xlink:href="#DejaVuSans-51" transform="translate(63.375 0)"/>
      <use xlink:href="#DejaVuSans-56" transform="translate(126.75 0)"/>
      <use xlink:href="#DejaVuSans-44" transform="translate(178.84375 0)"/>
      <use xlink:href="#DejaVuSans-49" transform="translate(240.125 0)"/>
      <use xlink:href="#DejaVuSans-48" transform="translate(275.328125 0)"/>
      <use xlink:href="#DejaVuSans-3" transform="translate(336.859375 0)"/>
      <use xlink:href="#DejaVuSans-57" transform="translate(368.640625 0)"/>
      <use xlink:href="#DejaVuSans-52" transform="translate(407.84375 0)"/>
      <use xlink:href="#DejaVuSans-3" transform="translate(469.03125 0)"/>
      <use xlink:href="#DejaVuSans-44" transform="translate(500.8125 0)"/>
      <use xlink:href="#DejaVuSans-46" transform="translate(562.09375 0)"/>
      <use xlink:href="#DejaVuSans-46" transform="translate(617.078125 0)"/>
      <use xlink:href="#DejaVuSans-48" transform="translate(672.0625 0)"/>
      <use xlink:href="#DejaVuSans-53" transform="translate(733.59375 0)"/>
      <use xlink:href="#DejaVuSans-57" transform="translate(797.078125 0)"/>
     </g>
    </g>
   </g>
  </g>
 </g>
 <defs>
  <clipPath id="p14fe27d01e">
   <rect x="44.103906" y="7.2" width="282.213638" height="177.399219"/>
  </clipPath>
 </defs>
</svg>
