<?xml version="1.0" encoding="utf-8" standalone="no"?>
<!DOCTYPE svg PUBLIC "-//W3C//DTD SVG 1.1//EN"
  "http://www.w3.org/Graphics/SVG/1.1/DTD/svg11.dtd">
<svg xmlns:xlink="http://www.w3.org/1999/xlink" width="348.867812pt" height="209.228906pt" viewBox="0 0 348.867812 209.228906" xmlns="http://www.w3.org/2000/svg" version="1.1">
 <metadata>
  <rdf:RDF xmlns:dc="http://purl.org/dc/elements/1.1/" xmlns:cc="http://creativecommons.org/ns#" xmlns:rdf="http://www.w3.org/1999/02/22-rdf-syntax-ns#">
   <cc:Work>
    <dc:type rdf:resource="http://purl.org/dc/dcmitype/StillImage"/>
    <dc:date>2026-06-21T23:29:51.364689</dc:date>
    <dc:format>image/svg+xml</dc:format>
    <dc:creator>
     <cc:Agent>
      <dc:title>Matplotlib v3.11.0, https://matplotlib.org/</dc:title>
     </cc:Agent>
    </dc:creator>
   </cc:Work>
  </rdf:RDF>
 </metadata>
 <defs>
  <style type="text/css">*{stroke-linejoin: round; stroke-linecap: butt}</style>
 </defs>
 <g id="figure_1">
  <g id="patch_1">
   <path d="M 0 209.228906 
L 348.867812 209.228906 
L 348.867812 0 
L 0 0 
L 0 209.228906 
z
" style="fill: none"/>
  </g>
  <g id="axes_1">
   <g id="patch_2">
    <path d="M 42.051563 170.599219 
L 339.219722 170.599219 
L 339.219722 7.2 
L 42.051563 7.2 
L 42.051563 170.599219 
z
" style="fill: none"/>
   </g>
   <g id="matplotlib.axis_1">
    <g id="xtick_1">
     <g id="line2d_1">
      <defs>
       <path id="m1e54dcced5" d="M 0 0 
L 0 3.5 
" style="stroke: #6b7280; stroke-width: 0.8"/>
      </defs>
      <g>
       <use xlink:href="#m1e54dcced5" x="42.051563" y="170.599219" style="fill: #6b7280; stroke: #6b7280; stroke-width: 0.8"/>
      </g>
     </g>
     <g id="text_1">
      <text style="font-size: 10px; font-family: 'PingFang SC', 'Heiti SC', 'STHeiti', 'Noto Sans CJK SC', 'Microsoft YaHei', 'SimHei', 'Arial Unicode MS', 'DejaVu Sans', sans-serif; text-anchor: middle; fill: #6b7280" x="42.051563" y="186.199219" transform="rotate(-0 42.051563 186.199219)">0.0</text>
     </g>
    </g>
    <g id="xtick_2">
     <g id="line2d_2">
      <g>
       <use xlink:href="#m1e54dcced5" x="78.291582" y="170.599219" style="fill: #6b7280; stroke: #6b7280; stroke-width: 0.8"/>
      </g>
     </g>
     <g id="text_2">
      <text style="font-size: 10px; font-family: 'PingFang SC', 'Heiti SC', 'STHeiti', 'Noto Sans CJK SC', 'Microsoft YaHei', 'SimHei', 'Arial Unicode MS', 'DejaVu Sans', sans-serif; text-anchor: middle; fill: #6b7280" x="78.291582" y="186.199219" transform="rotate(-0 78.291582 186.199219)">2.5</text>
     </g>
    </g>
    <g id="xtick_3">
     <g id="line2d_3">
      <g>
       <use xlink:href="#m1e54dcced5" x="114.531601" y="170.599219" style="fill: #6b7280; stroke: #6b7280; stroke-width: 0.8"/>
      </g>
     </g>
     <g id="text_3">
      <text style="font-size: 10px; font-family: 'PingFang SC', 'Heiti SC', 'STHeiti', 'Noto Sans CJK SC', 'Microsoft YaHei', 'SimHei', 'Arial Unicode MS', 'DejaVu Sans', sans-serif; text-anchor: middle; fill: #6b7280" x="114.531601" y="186.199219" transform="rotate(-0 114.531601 186.199219)">5.0</text>
     </g>
    </g>
    <g id="xtick_4">
     <g id="line2d_4">
      <g>
       <use xlink:href="#m1e54dcced5" x="150.771621" y="170.599219" style="fill: #6b7280; stroke: #6b7280; stroke-width: 0.8"/>
      </g>
     </g>
     <g id="text_4">
      <text style="font-size: 10px; font-family: 'PingFang SC', 'Heiti SC', 'STHeiti', 'Noto Sans CJK SC', 'Microsoft YaHei', 'SimHei', 'Arial Unicode MS', 'DejaVu Sans', sans-serif; text-anchor: middle; fill: #6b7280" x="150.771621" y="186.199219" transform="rotate(-0 150.771621 186.199219)">7.5</text>
     </g>
    </g>
    <g id="xtick_5">
     <g id="line2d_5">
      <g>
       <use xlink:href="#m1e54dcced5" x="187.01164" y="170.599219" style="fill: #6b7280; stroke: #6b7280; stroke-width: 0.8"/>
      </g>
     </g>
     <g id="text_5">
      <text style="font-size: 10px; font-family: 'PingFang SC', 'Heiti SC', 'STHeiti', 'Noto Sans CJK SC', 'Microsoft YaHei', 'SimHei', 'Arial Unicode MS', 'DejaVu Sans', sans-serif; text-anchor: middle; fill: #6b7280" x="187.01164" y="186.199219" transform="rotate(-0 187.01164 186.199219)">10.0</text>
     </g>
    </g>
    <g id="xtick_6">
     <g id="line2d_6">
      <g>
       <use xlink:href="#m1e54dcced5" x="223.25166" y="170.599219" style="fill: #6b7280; stroke: #6b7280; stroke-width: 0.8"/>
      </g>
     </g>
     <g id="text_6">
      <text style="font-size: 10px; font-family: 'PingFang SC', 'Heiti SC', 'STHeiti', 'Noto Sans CJK SC', 'Microsoft YaHei', 'SimHei', 'Arial Unicode MS', 'DejaVu Sans', sans-serif; text-anchor: middle; fill: #6b7280" x="223.25166" y="186.199219" transform="rotate(-0 223.25166 186.199219)">12.5</text>
     </g>
    </g>
    <g id="xtick_7">
     <g id="line2d_7">
      <g>
       <use xlink:href="#m1e54dcced5" x="259.491679" y="170.599219" style="fill: #6b7280; stroke: #6b7280; stroke-width: 0.8"/>
      </g>
     </g>
     <g id="text_7">
      <text style="font-size: 10px; font-family: 'PingFang SC', 'Heiti SC', 'STHeiti', 'Noto Sans CJK SC', 'Microsoft YaHei', 'SimHei', 'Arial Unicode MS', 'DejaVu Sans', sans-serif; text-anchor: middle; fill: #6b7280" x="259.491679" y="186.199219" transform="rotate(-0 259.491679 186.199219)">15.0</text>
     </g>
    </g>
    <g id="xtick_8">
     <g id="line2d_8">
      <g>
       <use xlink:href="#m1e54dcced5" x="295.731698" y="170.599219" style="fill: #6b7280; stroke: #6b7280; stroke-width: 0.8"/>
      </g>
     </g>
     <g id="text_8">
      <text style="font-size: 10px; font-family: 'PingFang SC', 'Heiti SC', 'STHeiti', 'Noto Sans CJK SC', 'Microsoft YaHei', 'SimHei', 'Arial Unicode MS', 'DejaVu Sans', sans-serif; text-anchor: middle; fill: #6b7280" x="295.731698" y="186.199219" transform="rotate(-0 295.731698 186.199219)">17.5</text>
     </g>
    </g>
    <g id="xtick_9">
     <g id="line2d_9">
      <g>
       <use xlink:href="#m1e54dcced5" x="331.971718" y="170.599219" style="fill: #6b7280; stroke: #6b7280; stroke-width: 0.8"/>
      </g>
     </g>
     <g id="text_9">
      <text style="font-size: 10px; font-family: 'PingFang SC', 'Heiti SC', 'STHeiti', 'Noto Sans CJK SC', 'Microsoft YaHei', 'SimHei', 'Arial Unicode MS', 'DejaVu Sans', sans-serif; text-anchor: middle; fill: #6b7280" x="331.971718" y="186.199219" transform="rotate(-0 331.971718 186.199219)">20.0</text>
     </g>
    </g>
    <g id="text_10">
     <text style="font-size: 10px; font-family: 'PingFang SC', 'Heiti SC', 'STHeiti', 'Noto Sans CJK SC', 'Microsoft YaHei', 'SimHei', 'Arial Unicode MS', 'DejaVu Sans', sans-serif; text-anchor: middle; fill: #6b7280" x="190.635642" y="200.628906" transform="rotate(-0 190.635642 200.628906)">草稿长度 gamma（每次提出的词元数）</text>
    </g>
   </g>
   <g id="matplotlib.axis_2">
    <g id="ytick_1">
     <g id="line2d_10">
      <defs>
       <path id="m99307569ff" d="M 0 0 
L -3.5 0 
" style="stroke: #6b7280; stroke-width: 0.8"/>
      </defs>
      <g>
       <use xlink:href="#m99307569ff" x="42.051563" y="170.599219" style="fill: #6b7280; stroke: #6b7280; stroke-width: 0.8"/>
      </g>
     </g>
     <g id="text_11">
      <text style="font-size: 10px; font-family: 'PingFang SC', 'Heiti SC', 'STHeiti', 'Noto Sans CJK SC', 'Microsoft YaHei', 'SimHei', 'Arial Unicode MS', 'DejaVu Sans', sans-serif; text-anchor: end; fill: #6b7280" x="35.051563" y="174.899219" transform="rotate(-0 35.051563 174.899219)">0.0</text>
     </g>
    </g>
    <g id="ytick_2">
     <g id="line2d_11">
      <g>
       <use xlink:href="#m99307569ff" x="42.051563" y="149.787963" style="fill: #6b7280; stroke: #6b7280; stroke-width: 0.8"/>
      </g>
     </g>
     <g id="text_12">
      <text style="font-size: 10px; font-family: 'PingFang SC', 'Heiti SC', 'STHeiti', 'Noto Sans CJK SC', 'Microsoft YaHei', 'SimHei', 'Arial Unicode MS', 'DejaVu Sans', sans-serif; text-anchor: end; fill: #6b7280" x="35.051563" y="154.087963" transform="rotate(-0 35.051563 154.087963)">0.5</text>
     </g>
    </g>
    <g id="ytick_3">
     <g id="line2d_12">
      <g>
       <use xlink:href="#m99307569ff" x="42.051563" y="128.976707" style="fill: #6b7280; stroke: #6b7280; stroke-width: 0.8"/>
      </g>
     </g>
     <g id="text_13">
      <text style="font-size: 10px; font-family: 'PingFang SC', 'Heiti SC', 'STHeiti', 'Noto Sans CJK SC', 'Microsoft YaHei', 'SimHei', 'Arial Unicode MS', 'DejaVu Sans', sans-serif; text-anchor: end; fill: #6b7280" x="35.051563" y="133.276707" transform="rotate(-0 35.051563 133.276707)">1.0</text>
     </g>
    </g>
    <g id="ytick_4">
     <g id="line2d_13">
      <g>
       <use xlink:href="#m99307569ff" x="42.051563" y="108.165451" style="fill: #6b7280; stroke: #6b7280; stroke-width: 0.8"/>
      </g>
     </g>
     <g id="text_14">
      <text style="font-size: 10px; font-family: 'PingFang SC', 'Heiti SC', 'STHeiti', 'Noto Sans CJK SC', 'Microsoft YaHei', 'SimHei', 'Arial Unicode MS', 'DejaVu Sans', sans-serif; text-anchor: end; fill: #6b7280" x="35.051563" y="112.465451" transform="rotate(-0 35.051563 112.465451)">1.5</text>
     </g>
    </g>
    <g id="ytick_5">
     <g id="line2d_14">
      <g>
       <use xlink:href="#m99307569ff" x="42.051563" y="87.354196" style="fill: #6b7280; stroke: #6b7280; stroke-width: 0.8"/>
      </g>
     </g>
     <g id="text_15">
      <text style="font-size: 10px; font-family: 'PingFang SC', 'Heiti SC', 'STHeiti', 'Noto Sans CJK SC', 'Microsoft YaHei', 'SimHei', 'Arial Unicode MS', 'DejaVu Sans', sans-serif; text-anchor: end; fill: #6b7280" x="35.051563" y="91.654196" transform="rotate(-0 35.051563 91.654196)">2.0</text>
     </g>
    </g>
    <g id="ytick_6">
     <g id="line2d_15">
      <g>
       <use xlink:href="#m99307569ff" x="42.051563" y="66.54294" style="fill: #6b7280; stroke: #6b7280; stroke-width: 0.8"/>
      </g>
     </g>
     <g id="text_16">
      <text style="font-size: 10px; font-family: 'PingFang SC', 'Heiti SC', 'STHeiti', 'Noto Sans CJK SC', 'Microsoft YaHei', 'SimHei', 'Arial Unicode MS', 'DejaVu Sans', sans-serif; text-anchor: end; fill: #6b7280" x="35.051563" y="70.84294" transform="rotate(-0 35.051563 70.84294)">2.5</text>
     </g>
    </g>
    <g id="ytick_7">
     <g id="line2d_16">
      <g>
       <use xlink:href="#m99307569ff" x="42.051563" y="45.731684" style="fill: #6b7280; stroke: #6b7280; stroke-width: 0.8"/>
      </g>
     </g>
     <g id="text_17">
      <text style="font-size: 10px; font-family: 'PingFang SC', 'Heiti SC', 'STHeiti', 'Noto Sans CJK SC', 'Microsoft YaHei', 'SimHei', 'Arial Unicode MS', 'DejaVu Sans', sans-serif; text-anchor: end; fill: #6b7280" x="35.051563" y="50.031684" transform="rotate(-0 35.051563 50.031684)">3.0</text>
     </g>
    </g>
    <g id="ytick_8">
     <g id="line2d_17">
      <g>
       <use xlink:href="#m99307569ff" x="42.051563" y="24.920428" style="fill: #6b7280; stroke: #6b7280; stroke-width: 0.8"/>
      </g>
     </g>
     <g id="text_18">
      <text style="font-size: 10px; font-family: 'PingFang SC', 'Heiti SC', 'STHeiti', 'Noto Sans CJK SC', 'Microsoft YaHei', 'SimHei', 'Arial Unicode MS', 'DejaVu Sans', sans-serif; text-anchor: end; fill: #6b7280" x="35.051563" y="29.220428" transform="rotate(-0 35.051563 29.220428)">3.5</text>
     </g>
    </g>
    <g id="text_19">
     <text style="font-size: 10px; font-family: 'PingFang SC', 'Heiti SC', 'STHeiti', 'Noto Sans CJK SC', 'Microsoft YaHei', 'SimHei', 'Arial Unicode MS', 'DejaVu Sans', sans-serif; text-anchor: middle; fill: #6b7280" x="15.8" y="88.899609" transform="rotate(-90 15.8 88.899609)">成本校正后的加速比</text>
    </g>
   </g>
   <g id="line2d_18">
    <path d="M 56.54757 97.147728 
L 71.043578 72.946403 
L 85.539586 54.684451 
L 100.035594 41.045298 
L 114.531601 31.001856 
L 129.027609 23.75262 
L 143.523617 18.671969 
L 158.019625 15.271492 
L 172.515632 13.169861 
L 187.01164 12.069364 
L 201.507648 11.737603 
L 216.003656 11.993212 
L 230.499664 12.694718 
L 244.995671 13.731837 
L 259.491679 15.018673 
L 273.987687 16.488401 
L 288.483695 18.089118 
L 302.979702 19.780587 
L 317.47571 21.531695 
L 331.971718 23.318463 
" clip-path="url(#pf7d133aab3)" style="fill: none; stroke: #3b82f6; stroke-width: 1.8; stroke-linecap: square"/>
    <defs>
     <path id="mb52b3c5edc" d="M 0 1.5 
C 0.397805 1.5 0.77937 1.341951 1.06066 1.06066 
C 1.341951 0.77937 1.5 0.397805 1.5 0 
C 1.5 -0.397805 1.341951 -0.77937 1.06066 -1.06066 
C 0.77937 -1.341951 0.397805 -1.5 0 -1.5 
C -0.397805 -1.5 -0.77937 -1.341951 -1.06066 -1.06066 
C -1.341951 -0.77937 -1.5 -0.397805 -1.5 0 
C -1.5 0.397805 -1.341951 0.77937 -1.06066 1.06066 
C -0.77937 1.341951 -0.397805 1.5 0 1.5 
z
" style="stroke: #3b82f6"/>
    </defs>
    <g clip-path="url(#pf7d133aab3)">
     <use xlink:href="#mb52b3c5edc" x="56.54757" y="97.147728" style="fill: #3b82f6; stroke: #3b82f6"/>
     <use xlink:href="#mb52b3c5edc" x="71.043578" y="72.946403" style="fill: #3b82f6; stroke: #3b82f6"/>
     <use xlink:href="#mb52b3c5edc" x="85.539586" y="54.684451" style="fill: #3b82f6; stroke: #3b82f6"/>
     <use xlink:href="#mb52b3c5edc" x="100.035594" y="41.045298" style="fill: #3b82f6; stroke: #3b82f6"/>
     <use xlink:href="#mb52b3c5edc" x="114.531601" y="31.001856" style="fill: #3b82f6; stroke: #3b82f6"/>
     <use xlink:href="#mb52b3c5edc" x="129.027609" y="23.75262" style="fill: #3b82f6; stroke: #3b82f6"/>
     <use xlink:href="#mb52b3c5edc" x="143.523617" y="18.671969" style="fill: #3b82f6; stroke: #3b82f6"/>
     <use xlink:href="#mb52b3c5edc" x="158.019625" y="15.271492" style="fill: #3b82f6; stroke: #3b82f6"/>
     <use xlink:href="#mb52b3c5edc" x="172.515632" y="13.169861" style="fill: #3b82f6; stroke: #3b82f6"/>
     <use xlink:href="#mb52b3c5edc" x="187.01164" y="12.069364" style="fill: #3b82f6; stroke: #3b82f6"/>
     <use xlink:href="#mb52b3c5edc" x="201.507648" y="11.737603" style="fill: #3b82f6; stroke: #3b82f6"/>
     <use xlink:href="#mb52b3c5edc" x="216.003656" y="11.993212" style="fill: #3b82f6; stroke: #3b82f6"/>
     <use xlink:href="#mb52b3c5edc" x="230.499664" y="12.694718" style="fill: #3b82f6; stroke: #3b82f6"/>
     <use xlink:href="#mb52b3c5edc" x="244.995671" y="13.731837" style="fill: #3b82f6; stroke: #3b82f6"/>
     <use xlink:href="#mb52b3c5edc" x="259.491679" y="15.018673" style="fill: #3b82f6; stroke: #3b82f6"/>
     <use xlink:href="#mb52b3c5edc" x="273.987687" y="16.488401" style="fill: #3b82f6; stroke: #3b82f6"/>
     <use xlink:href="#mb52b3c5edc" x="288.483695" y="18.089118" style="fill: #3b82f6; stroke: #3b82f6"/>
     <use xlink:href="#mb52b3c5edc" x="302.979702" y="19.780587" style="fill: #3b82f6; stroke: #3b82f6"/>
     <use xlink:href="#mb52b3c5edc" x="317.47571" y="21.531695" style="fill: #3b82f6; stroke: #3b82f6"/>
     <use xlink:href="#mb52b3c5edc" x="331.971718" y="23.318463" style="fill: #3b82f6; stroke: #3b82f6"/>
    </g>
   </g>
   <g id="line2d_19">
    <path d="M 56.54757 99.246342 
L 71.043578 78.27292 
L 85.539586 63.756041 
L 100.035594 54.00069 
L 114.531601 47.753539 
L 129.027609 44.085226 
L 143.523617 42.305097 
L 158.019625 41.899102 
L 172.515632 42.484293 
L 187.01164 43.775335 
L 201.507648 45.559753 
L 216.003656 47.679563 
L 230.499664 50.0176 
L 244.995671 52.487308 
L 259.491679 55.025099 
L 273.987687 57.584619 
L 288.483695 60.132443 
L 302.979702 62.644829 
L 317.47571 65.105279 
L 331.971718 67.50269 
" clip-path="url(#pf7d133aab3)" style="fill: none; stroke: #3b82f6; stroke-opacity: 0.7; stroke-width: 1.8; stroke-linecap: square"/>
    <defs>
     <path id="m599d937ddf" d="M 0 1.5 
C 0.397805 1.5 0.77937 1.341951 1.06066 1.06066 
C 1.341951 0.77937 1.5 0.397805 1.5 0 
C 1.5 -0.397805 1.341951 -0.77937 1.06066 -1.06066 
C 0.77937 -1.341951 0.397805 -1.5 0 -1.5 
C -0.397805 -1.5 -0.77937 -1.341951 -1.06066 -1.06066 
C -1.341951 -0.77937 -1.5 -0.397805 -1.5 0 
C -1.5 0.397805 -1.341951 0.77937 -1.06066 1.06066 
C -0.77937 1.341951 -0.397805 1.5 0 1.5 
z
" style="stroke: #3b82f6; stroke-opacity: 0.7"/>
    </defs>
    <g clip-path="url(#pf7d133aab3)">
     <use xlink:href="#m599d937ddf" x="56.54757" y="99.246342" style="fill: #3b82f6; fill-opacity: 0.7; stroke: #3b82f6; stroke-opacity: 0.7"/>
     <use xlink:href="#m599d937ddf" x="71.043578" y="78.27292" style="fill: #3b82f6; fill-opacity: 0.7; stroke: #3b82f6; stroke-opacity: 0.7"/>
     <use xlink:href="#m599d937ddf" x="85.539586" y="63.756041" style="fill: #3b82f6; fill-opacity: 0.7; stroke: #3b82f6; stroke-opacity: 0.7"/>
     <use xlink:href="#m599d937ddf" x="100.035594" y="54.00069" style="fill: #3b82f6; fill-opacity: 0.7; stroke: #3b82f6; stroke-opacity: 0.7"/>
     <use xlink:href="#m599d937ddf" x="114.531601" y="47.753539" style="fill: #3b82f6; fill-opacity: 0.7; stroke: #3b82f6; stroke-opacity: 0.7"/>
     <use xlink:href="#m599d937ddf" x="129.027609" y="44.085226" style="fill: #3b82f6; fill-opacity: 0.7; stroke: #3b82f6; stroke-opacity: 0.7"/>
     <use xlink:href="#m599d937ddf" x="143.523617" y="42.305097" style="fill: #3b82f6; fill-opacity: 0.7; stroke: #3b82f6; stroke-opacity: 0.7"/>
     <use xlink:href="#m599d937ddf" x="158.019625" y="41.899102" style="fill: #3b82f6; fill-opacity: 0.7; stroke: #3b82f6; stroke-opacity: 0.7"/>
     <use xlink:href="#m599d937ddf" x="172.515632" y="42.484293" style="fill: #3b82f6; fill-opacity: 0.7; stroke: #3b82f6; stroke-opacity: 0.7"/>
     <use xlink:href="#m599d937ddf" x="187.01164" y="43.775335" style="fill: #3b82f6; fill-opacity: 0.7; stroke: #3b82f6; stroke-opacity: 0.7"/>
     <use xlink:href="#m599d937ddf" x="201.507648" y="45.559753" style="fill: #3b82f6; fill-opacity: 0.7; stroke: #3b82f6; stroke-opacity: 0.7"/>
     <use xlink:href="#m599d937ddf" x="216.003656" y="47.679563" style="fill: #3b82f6; fill-opacity: 0.7; stroke: #3b82f6; stroke-opacity: 0.7"/>
     <use xlink:href="#m599d937ddf" x="230.499664" y="50.0176" style="fill: #3b82f6; fill-opacity: 0.7; stroke: #3b82f6; stroke-opacity: 0.7"/>
     <use xlink:href="#m599d937ddf" x="244.995671" y="52.487308" style="fill: #3b82f6; fill-opacity: 0.7; stroke: #3b82f6; stroke-opacity: 0.7"/>
     <use xlink:href="#m599d937ddf" x="259.491679" y="55.025099" style="fill: #3b82f6; fill-opacity: 0.7; stroke: #3b82f6; stroke-opacity: 0.7"/>
     <use xlink:href="#m599d937ddf" x="273.987687" y="57.584619" style="fill: #3b82f6; fill-opacity: 0.7; stroke: #3b82f6; stroke-opacity: 0.7"/>
     <use xlink:href="#m599d937ddf" x="288.483695" y="60.132443" style="fill: #3b82f6; fill-opacity: 0.7; stroke: #3b82f6; stroke-opacity: 0.7"/>
     <use xlink:href="#m599d937ddf" x="302.979702" y="62.644829" style="fill: #3b82f6; fill-opacity: 0.7; stroke: #3b82f6; stroke-opacity: 0.7"/>
     <use xlink:href="#m599d937ddf" x="317.47571" y="65.105279" style="fill: #3b82f6; fill-opacity: 0.7; stroke: #3b82f6; stroke-opacity: 0.7"/>
     <use xlink:href="#m599d937ddf" x="331.971718" y="67.50269" style="fill: #3b82f6; fill-opacity: 0.7; stroke: #3b82f6; stroke-opacity: 0.7"/>
    </g>
   </g>
   <g id="line2d_20">
    <path d="M 56.54757 102.489654 
L 71.043578 85.966779 
L 85.539586 76.0841 
L 100.035594 70.657622 
L 114.531601 68.227819 
L 129.027609 67.806599 
L 143.523617 68.718593 
L 158.019625 70.499128 
L 172.515632 72.827302 
L 187.01164 75.481306 
L 201.507648 78.308185 
L 216.003656 81.203106 
L 230.499664 84.095014 
L 244.995671 86.936615 
L 259.491679 89.697335 
L 273.987687 92.358342 
L 288.483695 94.909021 
L 302.979702 97.344455 
L 317.47571 99.663638 
L 331.971718 101.868199 
" clip-path="url(#pf7d133aab3)" style="fill: none; stroke: #3b82f6; stroke-opacity: 0.45; stroke-width: 1.8; stroke-linecap: square"/>
    <defs>
     <path id="mcf89f56211" d="M 0 1.5 
C 0.397805 1.5 0.77937 1.341951 1.06066 1.06066 
C 1.341951 0.77937 1.5 0.397805 1.5 0 
C 1.5 -0.397805 1.341951 -0.77937 1.06066 -1.06066 
C 0.77937 -1.341951 0.397805 -1.5 0 -1.5 
C -0.397805 -1.5 -0.77937 -1.341951 -1.06066 -1.06066 
C -1.341951 -0.77937 -1.5 -0.397805 -1.5 0 
C -1.5 0.397805 -1.341951 0.77937 -1.06066 1.06066 
C -0.77937 1.341951 -0.397805 1.5 0 1.5 
z
" style="stroke: #3b82f6; stroke-opacity: 0.45"/>
    </defs>
    <g clip-path="url(#pf7d133aab3)">
     <use xlink:href="#mcf89f56211" x="56.54757" y="102.489654" style="fill: #3b82f6; fill-opacity: 0.45; stroke: #3b82f6; stroke-opacity: 0.45"/>
     <use xlink:href="#mcf89f56211" x="71.043578" y="85.966779" style="fill: #3b82f6; fill-opacity: 0.45; stroke: #3b82f6; stroke-opacity: 0.45"/>
     <use xlink:href="#mcf89f56211" x="85.539586" y="76.0841" style="fill: #3b82f6; fill-opacity: 0.45; stroke: #3b82f6; stroke-opacity: 0.45"/>
     <use xlink:href="#mcf89f56211" x="100.035594" y="70.657622" style="fill: #3b82f6; fill-opacity: 0.45; stroke: #3b82f6; stroke-opacity: 0.45"/>
     <use xlink:href="#mcf89f56211" x="114.531601" y="68.227819" style="fill: #3b82f6; fill-opacity: 0.45; stroke: #3b82f6; stroke-opacity: 0.45"/>
     <use xlink:href="#mcf89f56211" x="129.027609" y="67.806599" style="fill: #3b82f6; fill-opacity: 0.45; stroke: #3b82f6; stroke-opacity: 0.45"/>
     <use xlink:href="#mcf89f56211" x="143.523617" y="68.718593" style="fill: #3b82f6; fill-opacity: 0.45; stroke: #3b82f6; stroke-opacity: 0.45"/>
     <use xlink:href="#mcf89f56211" x="158.019625" y="70.499128" style="fill: #3b82f6; fill-opacity: 0.45; stroke: #3b82f6; stroke-opacity: 0.45"/>
     <use xlink:href="#mcf89f56211" x="172.515632" y="72.827302" style="fill: #3b82f6; fill-opacity: 0.45; stroke: #3b82f6; stroke-opacity: 0.45"/>
     <use xlink:href="#mcf89f56211" x="187.01164" y="75.481306" style="fill: #3b82f6; fill-opacity: 0.45; stroke: #3b82f6; stroke-opacity: 0.45"/>
     <use xlink:href="#mcf89f56211" x="201.507648" y="78.308185" style="fill: #3b82f6; fill-opacity: 0.45; stroke: #3b82f6; stroke-opacity: 0.45"/>
     <use xlink:href="#mcf89f56211" x="216.003656" y="81.203106" style="fill: #3b82f6; fill-opacity: 0.45; stroke: #3b82f6; stroke-opacity: 0.45"/>
     <use xlink:href="#mcf89f56211" x="230.499664" y="84.095014" style="fill: #3b82f6; fill-opacity: 0.45; stroke: #3b82f6; stroke-opacity: 0.45"/>
     <use xlink:href="#mcf89f56211" x="244.995671" y="86.936615" style="fill: #3b82f6; fill-opacity: 0.45; stroke: #3b82f6; stroke-opacity: 0.45"/>
     <use xlink:href="#mcf89f56211" x="259.491679" y="89.697335" style="fill: #3b82f6; fill-opacity: 0.45; stroke: #3b82f6; stroke-opacity: 0.45"/>
     <use xlink:href="#mcf89f56211" x="273.987687" y="92.358342" style="fill: #3b82f6; fill-opacity: 0.45; stroke: #3b82f6; stroke-opacity: 0.45"/>
     <use xlink:href="#mcf89f56211" x="288.483695" y="94.909021" style="fill: #3b82f6; fill-opacity: 0.45; stroke: #3b82f6; stroke-opacity: 0.45"/>
     <use xlink:href="#mcf89f56211" x="302.979702" y="97.344455" style="fill: #3b82f6; fill-opacity: 0.45; stroke: #3b82f6; stroke-opacity: 0.45"/>
     <use xlink:href="#mcf89f56211" x="317.47571" y="99.663638" style="fill: #3b82f6; fill-opacity: 0.45; stroke: #3b82f6; stroke-opacity: 0.45"/>
     <use xlink:href="#mcf89f56211" x="331.971718" y="101.868199" style="fill: #3b82f6; fill-opacity: 0.45; stroke: #3b82f6; stroke-opacity: 0.45"/>
    </g>
   </g>
   <g id="patch_3">
    <path d="M 42.051563 170.599219 
L 42.051563 7.2 
" style="fill: none; stroke: #6b7280; stroke-width: 0.8; stroke-linejoin: miter; stroke-linecap: square"/>
   </g>
   <g id="patch_4">
    <path d="M 42.051563 170.599219 
L 339.219722 170.599219 
" style="fill: none; stroke: #6b7280; stroke-width: 0.8; stroke-linejoin: miter; stroke-linecap: square"/>
   </g>
   <g id="PathCollection_1">
    <path d="M 201.507648 14.977973 
C 202.367004 14.977973 203.191279 14.636547 203.798936 14.02889 
C 204.406592 13.421234 204.748018 12.596959 204.748018 11.737603 
C 204.748018 10.878246 204.406592 10.053971 203.798936 9.446315 
C 203.191279 8.838658 202.367004 8.497232 201.507648 8.497232 
C 200.648292 8.497232 199.824017 8.838658 199.21636 9.446315 
C 198.608703 10.053971 198.267278 10.878246 198.267278 11.737603 
C 198.267278 12.596959 198.608703 13.421234 199.21636 14.02889 
C 199.824017 14.636547 200.648292 14.977973 201.507648 14.977973 
z
" clip-path="url(#pf7d133aab3)" style="fill: #3b82f6"/>
   </g>
   <g id="PathCollection_2">
    <path d="M 158.019625 45.139473 
C 158.878981 45.139473 159.703256 44.798047 160.310913 44.19039 
C 160.918569 43.582733 161.259995 42.758459 161.259995 41.899102 
C 161.259995 41.039746 160.918569 40.215471 160.310913 39.607814 
C 159.703256 39.000158 158.878981 38.658732 158.019625 38.658732 
C 157.160268 38.658732 156.335993 39.000158 155.728337 39.607814 
C 155.12068 40.215471 154.779254 41.039746 154.779254 41.899102 
C 154.779254 42.758459 155.12068 43.582733 155.728337 44.19039 
C 156.335993 44.798047 157.160268 45.139473 158.019625 45.139473 
z
" clip-path="url(#pf7d133aab3)" style="fill: #3b82f6; fill-opacity: 0.7"/>
   </g>
   <g id="PathCollection_3">
    <path d="M 129.027609 71.04697 
C 129.886965 71.04697 130.71124 70.705544 131.318897 70.097887 
C 131.926554 69.490231 132.267979 68.665956 132.267979 67.806599 
C 132.267979 66.947243 131.926554 66.122968 131.318897 65.515311 
C 130.71124 64.907655 129.886965 64.566229 129.027609 64.566229 
C 128.168253 64.566229 127.343978 64.907655 126.736321 65.515311 
C 126.128665 66.122968 125.787239 66.947243 125.787239 67.806599 
C 125.787239 68.665956 126.128665 69.490231 126.736321 70.097887 
C 127.343978 70.705544 128.168253 71.04697 129.027609 71.04697 
z
" clip-path="url(#pf7d133aab3)" style="fill: #3b82f6; fill-opacity: 0.45"/>
   </g>
   <g id="legend_1">
    <g id="text_20">
     <text style="font-size: 8px; font-family: 'PingFang SC', 'Heiti SC', 'STHeiti', 'Noto Sans CJK SC', 'Microsoft YaHei', 'SimHei', 'Arial Unicode MS', 'DejaVu Sans', sans-serif; text-anchor: start; fill: #6b7280" x="56.987812" y="126.279219" transform="rotate(-0 56.987812 126.279219)">接受率 alpha = 0.8</text>
    </g>
    <g id="line2d_21">
     <path d="M 49.251563 135.479219 
L 57.251563 135.479219 
L 65.251563 135.479219 
" style="fill: none; stroke: #3b82f6; stroke-width: 1.8; stroke-linecap: square"/>
     <g>
      <use xlink:href="#mb52b3c5edc" x="57.251563" y="135.479219" style="fill: #3b82f6; stroke: #3b82f6"/>
     </g>
    </g>
    <g id="text_21">
     <text style="font-size: 8px; font-family: 'PingFang SC', 'Heiti SC', 'STHeiti', 'Noto Sans CJK SC', 'Microsoft YaHei', 'SimHei', 'Arial Unicode MS', 'DejaVu Sans', sans-serif; text-anchor: start; fill: #6b7280" x="71.651563" y="138.279219" transform="rotate(-0 71.651563 138.279219)">草稿成本比 c = 0.02</text>
    </g>
    <g id="line2d_22">
     <path d="M 49.251563 147.479219 
L 57.251563 147.479219 
L 65.251563 147.479219 
" style="fill: none; stroke: #3b82f6; stroke-opacity: 0.7; stroke-width: 1.8; stroke-linecap: square"/>
     <g>
      <use xlink:href="#m599d937ddf" x="57.251563" y="147.479219" style="fill: #3b82f6; fill-opacity: 0.7; stroke: #3b82f6; stroke-opacity: 0.7"/>
     </g>
    </g>
    <g id="text_22">
     <text style="font-size: 8px; font-family: 'PingFang SC', 'Heiti SC', 'STHeiti', 'Noto Sans CJK SC', 'Microsoft YaHei', 'SimHei', 'Arial Unicode MS', 'DejaVu Sans', sans-serif; text-anchor: start; fill: #6b7280" x="71.651563" y="150.279219" transform="rotate(-0 71.651563 150.279219)">草稿成本比 c = 0.05</text>
    </g>
    <g id="line2d_23">
     <path d="M 49.251563 159.479219 
L 57.251563 159.479219 
L 65.251563 159.479219 
" style="fill: none; stroke: #3b82f6; stroke-opacity: 0.45; stroke-width: 1.8; stroke-linecap: square"/>
     <g>
      <use xlink:href="#mcf89f56211" x="57.251563" y="159.479219" style="fill: #3b82f6; fill-opacity: 0.45; stroke: #3b82f6; stroke-opacity: 0.45"/>
     </g>
    </g>
    <g id="text_23">
     <text style="font-size: 8px; font-family: 'PingFang SC', 'Heiti SC', 'STHeiti', 'Noto Sans CJK SC', 'Microsoft YaHei', 'SimHei', 'Arial Unicode MS', 'DejaVu Sans', sans-serif; text-anchor: start; fill: #6b7280" x="71.651563" y="162.279219" transform="rotate(-0 71.651563 162.279219)">草稿成本比 c = 0.1</text>
    </g>
   </g>
  </g>
 </g>
 <defs>
  <clipPath id="pf7d133aab3">
   <rect x="42.051563" y="7.2" width="297.168159" height="163.399219"/>
  </clipPath>
 </defs>
</svg>
