<?xml version="1.0" encoding="utf-8" standalone="no"?>
<!DOCTYPE svg PUBLIC "-//W3C//DTD SVG 1.1//EN"
  "http://www.w3.org/Graphics/SVG/1.1/DTD/svg11.dtd">
<svg xmlns:xlink="http://www.w3.org/1999/xlink" width="352.8pt" height="208.8pt" viewBox="0 0 352.8 208.8" xmlns="http://www.w3.org/2000/svg" version="1.1">
 <metadata>
  <rdf:RDF xmlns:dc="http://purl.org/dc/elements/1.1/" xmlns:cc="http://creativecommons.org/ns#" xmlns:rdf="http://www.w3.org/1999/02/22-rdf-syntax-ns#">
   <cc:Work>
    <dc:type rdf:resource="http://purl.org/dc/dcmitype/StillImage"/>
    <dc:date>2026-06-20T12:39:04.104322</dc:date>
    <dc:format>image/svg+xml</dc:format>
    <dc:creator>
     <cc:Agent>
      <dc:title>Matplotlib v3.11.0, https://matplotlib.org/</dc:title>
     </cc:Agent>
    </dc:creator>
   </cc:Work>
  </rdf:RDF>
 </metadata>
 <defs>
  <style type="text/css">*{stroke-linejoin: round; stroke-linecap: butt}</style>
 </defs>
 <g id="figure_1">
  <g id="patch_1">
   <path d="M 0 208.8 
L 352.8 208.8 
L 352.8 0 
L 0 0 
L 0 208.8 
z
" style="fill: none"/>
  </g>
  <g id="axes_1">
   <g id="patch_2">
    <path d="M 28.200781 180.599219 
L 345.6 180.599219 
L 345.6 7.2 
L 28.200781 7.2 
L 28.200781 180.599219 
z
" style="fill: none"/>
   </g>
   <g id="matplotlib.axis_1">
    <g id="xtick_1">
     <g id="line2d_1">
      <defs>
       <path id="m6222c8771b" d="M 0 0 
L 0 3.5 
" style="stroke: #6b7280; stroke-width: 0.8"/>
      </defs>
      <g>
       <use xlink:href="#m6222c8771b" x="28.200781" y="180.599219" style="fill: #6b7280; stroke: #6b7280; stroke-width: 0.8"/>
      </g>
     </g>
    </g>
    <g id="xtick_2">
     <g id="line2d_2">
      <g>
       <use xlink:href="#m6222c8771b" x="73.543527" y="180.599219" style="fill: #6b7280; stroke: #6b7280; stroke-width: 0.8"/>
      </g>
     </g>
    </g>
    <g id="xtick_3">
     <g id="line2d_3">
      <g>
       <use xlink:href="#m6222c8771b" x="118.886272" y="180.599219" style="fill: #6b7280; stroke: #6b7280; stroke-width: 0.8"/>
      </g>
     </g>
    </g>
    <g id="xtick_4">
     <g id="line2d_4">
      <g>
       <use xlink:href="#m6222c8771b" x="164.229018" y="180.599219" style="fill: #6b7280; stroke: #6b7280; stroke-width: 0.8"/>
      </g>
     </g>
    </g>
    <g id="xtick_5">
     <g id="line2d_5">
      <g>
       <use xlink:href="#m6222c8771b" x="209.571763" y="180.599219" style="fill: #6b7280; stroke: #6b7280; stroke-width: 0.8"/>
      </g>
     </g>
    </g>
    <g id="xtick_6">
     <g id="line2d_6">
      <g>
       <use xlink:href="#m6222c8771b" x="254.914509" y="180.599219" style="fill: #6b7280; stroke: #6b7280; stroke-width: 0.8"/>
      </g>
     </g>
    </g>
    <g id="xtick_7">
     <g id="line2d_7">
      <g>
       <use xlink:href="#m6222c8771b" x="300.257254" y="180.599219" style="fill: #6b7280; stroke: #6b7280; stroke-width: 0.8"/>
      </g>
     </g>
    </g>
    <g id="xtick_8">
     <g id="line2d_8">
      <g>
       <use xlink:href="#m6222c8771b" x="345.6" y="180.599219" style="fill: #6b7280; stroke: #6b7280; stroke-width: 0.8"/>
      </g>
     </g>
    </g>
    <g id="text_1">
     <!-- Sequence length -->
     <g style="fill: #6b7280" transform="translate(144.708984 199.197656) scale(0.1 -0.1)">
      <defs>
       <path id="DejaVuSans-36" d="M 3425 4513 
L 3425 3897 
Q 3066 4069 2747 4153 
Q 2428 4238 2131 4238 
Q 1616 4238 1336 4038 
Q 1056 3838 1056 3469 
Q 1056 3159 1242 3001 
Q 1428 2844 1947 2747 
L 2328 2669 
Q 3034 2534 3370 2195 
Q 3706 1856 3706 1288 
Q 3706 609 3251 259 
Q 2797 -91 1919 -91 
Q 1588 -91 1214 -16 
Q 841 59 441 206 
L 441 856 
Q 825 641 1194 531 
Q 1563 422 1919 422 
Q 2459 422 2753 634 
Q 3047 847 3047 1241 
Q 3047 1584 2836 1778 
Q 2625 1972 2144 2069 
L 1759 2144 
Q 1053 2284 737 2584 
Q 422 2884 422 3419 
Q 422 4038 858 4394 
Q 1294 4750 2059 4750 
Q 2388 4750 2728 4690 
Q 3069 4631 3425 4513 
z
" transform="scale(0.015625)"/>
       <path id="DejaVuSans-48" d="M 3597 1894 
L 3597 1613 
L 953 1613 
Q 991 1019 1311 708 
Q 1631 397 2203 397 
Q 2534 397 2845 478 
Q 3156 559 3463 722 
L 3463 178 
Q 3153 47 2828 -22 
Q 2503 -91 2169 -91 
Q 1331 -91 842 396 
Q 353 884 353 1716 
Q 353 2575 817 3079 
Q 1281 3584 2069 3584 
Q 2775 3584 3186 3129 
Q 3597 2675 3597 1894 
z
M 3022 2063 
Q 3016 2534 2758 2815 
Q 2500 3097 2075 3097 
Q 1594 3097 1305 2825 
Q 1016 2553 972 2059 
L 3022 2063 
z
" transform="scale(0.015625)"/>
       <path id="DejaVuSans-54" d="M 947 1747 
Q 947 1113 1208 752 
Q 1469 391 1925 391 
Q 2381 391 2643 752 
Q 2906 1113 2906 1747 
Q 2906 2381 2643 2742 
Q 2381 3103 1925 3103 
Q 1469 3103 1208 2742 
Q 947 2381 947 1747 
z
M 2906 525 
Q 2725 213 2448 61 
Q 2172 -91 1784 -91 
Q 1150 -91 751 415 
Q 353 922 353 1747 
Q 353 2572 751 3078 
Q 1150 3584 1784 3584 
Q 2172 3584 2448 3432 
Q 2725 3281 2906 2969 
L 2906 3500 
L 3481 3500 
L 3481 -1331 
L 2906 -1331 
L 2906 525 
z
" transform="scale(0.015625)"/>
       <path id="DejaVuSans-58" d="M 544 1381 
L 544 3500 
L 1119 3500 
L 1119 1403 
Q 1119 906 1312 657 
Q 1506 409 1894 409 
Q 2359 409 2629 706 
Q 2900 1003 2900 1516 
L 2900 3500 
L 3475 3500 
L 3475 0 
L 2900 0 
L 2900 538 
Q 2691 219 2414 64 
Q 2138 -91 1772 -91 
Q 1169 -91 856 284 
Q 544 659 544 1381 
z
M 1991 3584 
L 1991 3584 
z
" transform="scale(0.015625)"/>
       <path id="DejaVuSans-51" d="M 3513 2113 
L 3513 0 
L 2938 0 
L 2938 2094 
Q 2938 2591 2744 2837 
Q 2550 3084 2163 3084 
Q 1697 3084 1428 2787 
Q 1159 2491 1159 1978 
L 1159 0 
L 581 0 
L 581 3500 
L 1159 3500 
L 1159 2956 
Q 1366 3272 1645 3428 
Q 1925 3584 2291 3584 
Q 2894 3584 3203 3211 
Q 3513 2838 3513 2113 
z
" transform="scale(0.015625)"/>
       <path id="DejaVuSans-46" d="M 3122 3366 
L 3122 2828 
Q 2878 2963 2633 3030 
Q 2388 3097 2138 3097 
Q 1578 3097 1268 2742 
Q 959 2388 959 1747 
Q 959 1106 1268 751 
Q 1578 397 2138 397 
Q 2388 397 2633 464 
Q 2878 531 3122 666 
L 3122 134 
Q 2881 22 2623 -34 
Q 2366 -91 2075 -91 
Q 1284 -91 818 406 
Q 353 903 353 1747 
Q 353 2603 823 3093 
Q 1294 3584 2113 3584 
Q 2378 3584 2631 3529 
Q 2884 3475 3122 3366 
z
" transform="scale(0.015625)"/>
       <path id="DejaVuSans-3" transform="scale(0.015625)"/>
       <path id="DejaVuSans-4f" d="M 603 4863 
L 1178 4863 
L 1178 0 
L 603 0 
L 603 4863 
z
" transform="scale(0.015625)"/>
       <path id="DejaVuSans-4a" d="M 2906 1791 
Q 2906 2416 2648 2759 
Q 2391 3103 1925 3103 
Q 1463 3103 1205 2759 
Q 947 2416 947 1791 
Q 947 1169 1205 825 
Q 1463 481 1925 481 
Q 2391 481 2648 825 
Q 2906 1169 2906 1791 
z
M 3481 434 
Q 3481 -459 3084 -895 
Q 2688 -1331 1869 -1331 
Q 1566 -1331 1297 -1286 
Q 1028 -1241 775 -1147 
L 775 -588 
Q 1028 -725 1275 -790 
Q 1522 -856 1778 -856 
Q 2344 -856 2625 -561 
Q 2906 -266 2906 331 
L 2906 616 
Q 2728 306 2450 153 
Q 2172 0 1784 0 
Q 1141 0 747 490 
Q 353 981 353 1791 
Q 353 2603 747 3093 
Q 1141 3584 1784 3584 
Q 2172 3584 2450 3431 
Q 2728 3278 2906 2969 
L 2906 3500 
L 3481 3500 
L 3481 434 
z
" transform="scale(0.015625)"/>
       <path id="DejaVuSans-57" d="M 1172 4494 
L 1172 3500 
L 2356 3500 
L 2356 3053 
L 1172 3053 
L 1172 1153 
Q 1172 725 1289 603 
Q 1406 481 1766 481 
L 2356 481 
L 2356 0 
L 1766 0 
Q 1100 0 847 248 
Q 594 497 594 1153 
L 594 3053 
L 172 3053 
L 172 3500 
L 594 3500 
L 594 4494 
L 1172 4494 
z
" transform="scale(0.015625)"/>
       <path id="DejaVuSans-4b" d="M 3513 2113 
L 3513 0 
L 2938 0 
L 2938 2094 
Q 2938 2591 2744 2837 
Q 2550 3084 2163 3084 
Q 1697 3084 1428 2787 
Q 1159 2491 1159 1978 
L 1159 0 
L 581 0 
L 581 4863 
L 1159 4863 
L 1159 2956 
Q 1366 3272 1645 3428 
Q 1925 3584 2291 3584 
Q 2894 3584 3203 3211 
Q 3513 2838 3513 2113 
z
" transform="scale(0.015625)"/>
      </defs>
      <use xlink:href="#DejaVuSans-36"/>
      <use xlink:href="#DejaVuSans-48" transform="translate(63.484375 0)"/>
      <use xlink:href="#DejaVuSans-54" transform="translate(125.015625 0)"/>
      <use xlink:href="#DejaVuSans-58" transform="translate(188.5 0)"/>
      <use xlink:href="#DejaVuSans-48" transform="translate(251.875 0)"/>
      <use xlink:href="#DejaVuSans-51" transform="translate(313.40625 0)"/>
      <use xlink:href="#DejaVuSans-46" transform="translate(376.78125 0)"/>
      <use xlink:href="#DejaVuSans-48" transform="translate(431.765625 0)"/>
      <use xlink:href="#DejaVuSans-3" transform="translate(493.296875 0)"/>
      <use xlink:href="#DejaVuSans-4f" transform="translate(525.078125 0)"/>
      <use xlink:href="#DejaVuSans-48" transform="translate(552.859375 0)"/>
      <use xlink:href="#DejaVuSans-51" transform="translate(614.390625 0)"/>
      <use xlink:href="#DejaVuSans-4a" transform="translate(677.765625 0)"/>
      <use xlink:href="#DejaVuSans-57" transform="translate(741.25 0)"/>
      <use xlink:href="#DejaVuSans-4b" transform="translate(780.453125 0)"/>
     </g>
    </g>
   </g>
   <g id="matplotlib.axis_2">
    <g id="ytick_1">
     <g id="line2d_9">
      <defs>
       <path id="m84f79d5218" d="M 0 0 
L -3.5 0 
" style="stroke: #6b7280; stroke-width: 0.8"/>
      </defs>
      <g>
       <use xlink:href="#m84f79d5218" x="28.200781" y="180.599219" style="fill: #6b7280; stroke: #6b7280; stroke-width: 0.8"/>
      </g>
     </g>
    </g>
    <g id="ytick_2">
     <g id="line2d_10">
      <g>
       <use xlink:href="#m84f79d5218" x="28.200781" y="154.795764" style="fill: #6b7280; stroke: #6b7280; stroke-width: 0.8"/>
      </g>
     </g>
    </g>
    <g id="ytick_3">
     <g id="line2d_11">
      <g>
       <use xlink:href="#m84f79d5218" x="28.200781" y="128.992308" style="fill: #6b7280; stroke: #6b7280; stroke-width: 0.8"/>
      </g>
     </g>
    </g>
    <g id="ytick_4">
     <g id="line2d_12">
      <g>
       <use xlink:href="#m84f79d5218" x="28.200781" y="103.188853" style="fill: #6b7280; stroke: #6b7280; stroke-width: 0.8"/>
      </g>
     </g>
    </g>
    <g id="ytick_5">
     <g id="line2d_13">
      <g>
       <use xlink:href="#m84f79d5218" x="28.200781" y="77.385398" style="fill: #6b7280; stroke: #6b7280; stroke-width: 0.8"/>
      </g>
     </g>
    </g>
    <g id="ytick_6">
     <g id="line2d_14">
      <g>
       <use xlink:href="#m84f79d5218" x="28.200781" y="51.581943" style="fill: #6b7280; stroke: #6b7280; stroke-width: 0.8"/>
      </g>
     </g>
    </g>
    <g id="ytick_7">
     <g id="line2d_15">
      <g>
       <use xlink:href="#m84f79d5218" x="28.200781" y="25.778488" style="fill: #6b7280; stroke: #6b7280; stroke-width: 0.8"/>
      </g>
     </g>
    </g>
    <g id="text_2">
     <!-- Sequence-mixing cost -->
     <g style="fill: #6b7280" transform="translate(14.798438 149.281641) rotate(-90) scale(0.1 -0.1)">
      <defs>
       <path id="DejaVuSans-10" d="M 313 2009 
L 1997 2009 
L 1997 1497 
L 313 1497 
L 313 2009 
z
" transform="scale(0.015625)"/>
       <path id="DejaVuSans-50" d="M 3328 2828 
Q 3544 3216 3844 3400 
Q 4144 3584 4550 3584 
Q 5097 3584 5394 3201 
Q 5691 2819 5691 2113 
L 5691 0 
L 5113 0 
L 5113 2094 
Q 5113 2597 4934 2840 
Q 4756 3084 4391 3084 
Q 3944 3084 3684 2787 
Q 3425 2491 3425 1978 
L 3425 0 
L 2847 0 
L 2847 2094 
Q 2847 2600 2669 2842 
Q 2491 3084 2119 3084 
Q 1678 3084 1418 2786 
Q 1159 2488 1159 1978 
L 1159 0 
L 581 0 
L 581 3500 
L 1159 3500 
L 1159 2956 
Q 1356 3278 1631 3431 
Q 1906 3584 2284 3584 
Q 2666 3584 2933 3390 
Q 3200 3197 3328 2828 
z
" transform="scale(0.015625)"/>
       <path id="DejaVuSans-4c" d="M 603 3500 
L 1178 3500 
L 1178 0 
L 603 0 
L 603 3500 
z
M 603 4863 
L 1178 4863 
L 1178 4134 
L 603 4134 
L 603 4863 
z
" transform="scale(0.015625)"/>
       <path id="DejaVuSans-5b" d="M 3513 3500 
L 2247 1797 
L 3578 0 
L 2900 0 
L 1881 1375 
L 863 0 
L 184 0 
L 1544 1831 
L 300 3500 
L 978 3500 
L 1906 2253 
L 2834 3500 
L 3513 3500 
z
" transform="scale(0.015625)"/>
       <path id="DejaVuSans-52" d="M 1959 3097 
Q 1497 3097 1228 2736 
Q 959 2375 959 1747 
Q 959 1119 1226 758 
Q 1494 397 1959 397 
Q 2419 397 2687 759 
Q 2956 1122 2956 1747 
Q 2956 2369 2687 2733 
Q 2419 3097 1959 3097 
z
M 1959 3584 
Q 2709 3584 3137 3096 
Q 3566 2609 3566 1747 
Q 3566 888 3137 398 
Q 2709 -91 1959 -91 
Q 1206 -91 779 398 
Q 353 888 353 1747 
Q 353 2609 779 3096 
Q 1206 3584 1959 3584 
z
" transform="scale(0.015625)"/>
       <path id="DejaVuSans-56" d="M 2834 3397 
L 2834 2853 
Q 2591 2978 2328 3040 
Q 2066 3103 1784 3103 
Q 1356 3103 1142 2972 
Q 928 2841 928 2578 
Q 928 2378 1081 2264 
Q 1234 2150 1697 2047 
L 1894 2003 
Q 2506 1872 2764 1633 
Q 3022 1394 3022 966 
Q 3022 478 2636 193 
Q 2250 -91 1575 -91 
Q 1294 -91 989 -36 
Q 684 19 347 128 
L 347 722 
Q 666 556 975 473 
Q 1284 391 1588 391 
Q 1994 391 2212 530 
Q 2431 669 2431 922 
Q 2431 1156 2273 1281 
Q 2116 1406 1581 1522 
L 1381 1569 
Q 847 1681 609 1914 
Q 372 2147 372 2553 
Q 372 3047 722 3315 
Q 1072 3584 1716 3584 
Q 2034 3584 2315 3537 
Q 2597 3491 2834 3397 
z
" transform="scale(0.015625)"/>
      </defs>
      <use xlink:href="#DejaVuSans-36"/>
      <use xlink:href="#DejaVuSans-48" transform="translate(63.484375 0)"/>
      <use xlink:href="#DejaVuSans-54" transform="translate(125.015625 0)"/>
      <use xlink:href="#DejaVuSans-58" transform="translate(188.5 0)"/>
      <use xlink:href="#DejaVuSans-48" transform="translate(251.875 0)"/>
      <use xlink:href="#DejaVuSans-51" transform="translate(313.40625 0)"/>
      <use xlink:href="#DejaVuSans-46" transform="translate(376.78125 0)"/>
      <use xlink:href="#DejaVuSans-48" transform="translate(431.765625 0)"/>
      <use xlink:href="#DejaVuSans-10" transform="translate(493.296875 0)"/>
      <use xlink:href="#DejaVuSans-50" transform="translate(529.375 0)"/>
      <use xlink:href="#DejaVuSans-4c" transform="translate(626.78125 0)"/>
      <use xlink:href="#DejaVuSans-5b" transform="translate(654.5625 0)"/>
      <use xlink:href="#DejaVuSans-4c" transform="translate(713.75 0)"/>
      <use xlink:href="#DejaVuSans-51" transform="translate(741.53125 0)"/>
      <use xlink:href="#DejaVuSans-4a" transform="translate(804.90625 0)"/>
      <use xlink:href="#DejaVuSans-3" transform="translate(868.390625 0)"/>
      <use xlink:href="#DejaVuSans-46" transform="translate(900.171875 0)"/>
      <use xlink:href="#DejaVuSans-52" transform="translate(955.15625 0)"/>
      <use xlink:href="#DejaVuSans-56" transform="translate(1016.34375 0)"/>
      <use xlink:href="#DejaVuSans-57" transform="translate(1068.4375 0)"/>
     </g>
    </g>
   </g>
   <g id="line2d_16">
    <path d="M 28.200781 178.018873 
L 37.746622 176.818048 
L 47.292464 175.388493 
L 56.838305 173.73021 
L 66.384146 171.843199 
L 75.929987 169.727458 
L 85.475828 167.382989 
L 95.021669 164.809791 
L 104.567511 162.007865 
L 114.113352 158.97721 
L 123.659193 155.717826 
L 133.205034 152.229714 
L 142.750875 148.512872 
L 152.296716 144.567303 
L 161.842558 140.393004 
L 171.388399 135.989977 
L 180.93424 131.358221 
L 191.275568 126.082371 
L 201.616896 120.538083 
L 211.958224 114.725356 
L 222.299552 108.644191 
L 232.64088 102.294588 
L 242.982207 95.676545 
L 253.323535 88.790065 
L 263.664863 81.635145 
L 274.006191 74.211788 
L 284.347519 66.519991 
L 294.688847 58.559756 
L 305.030175 50.331083 
L 315.371503 41.833971 
L 326.508318 32.383029 
L 337.645132 22.620761 
L 345.6 15.457106 
L 345.6 15.457106 
" clip-path="url(#p9c5c1e99b4)" style="fill: none; stroke: #3b82f6; stroke-width: 2; stroke-linecap: square"/>
   </g>
   <g id="line2d_17">
    <path d="M 28.200781 178.018873 
L 345.6 159.956455 
L 345.6 159.956455 
" clip-path="url(#p9c5c1e99b4)" style="fill: none; stroke-dasharray: 7.4,3.2; stroke-dashoffset: 0; stroke: #6b7280; stroke-width: 2"/>
   </g>
   <g id="patch_3">
    <path d="M 28.200781 180.599219 
L 28.200781 7.2 
" style="fill: none; stroke: #6b7280; stroke-width: 0.8; stroke-linejoin: miter; stroke-linecap: square"/>
   </g>
   <g id="patch_4">
    <path d="M 28.200781 180.599219 
L 345.6 180.599219 
" style="fill: none; stroke: #6b7280; stroke-width: 0.8; stroke-linejoin: miter; stroke-linecap: square"/>
   </g>
   <g id="patch_5">
    <path d="M 209.13061 46.882332 
Q 253.696956 50.442663 297.14882 53.913961 
" style="fill: none; stroke: #6b7280; stroke-linecap: round"/>
    <path d="M 293.703595 51.832993 
L 297.14882 53.913961 
L 293.416911 55.421559 
" style="fill: none; stroke: #6b7280; stroke-linecap: round"/>
   </g>
   <g id="text_3">
    <!-- widening gap -->
    <g style="fill: #6b7280" transform="translate(137.023371 40.779482) scale(0.09 -0.09)">
     <defs>
      <path id="DejaVuSans-5a" d="M 269 3500 
L 844 3500 
L 1563 769 
L 2278 3500 
L 2956 3500 
L 3675 769 
L 4391 3500 
L 4966 3500 
L 4050 0 
L 3372 0 
L 2619 2869 
L 1863 0 
L 1184 0 
L 269 3500 
z
" transform="scale(0.015625)"/>
      <path id="DejaVuSans-47" d="M 2906 2969 
L 2906 4863 
L 3481 4863 
L 3481 0 
L 2906 0 
L 2906 525 
Q 2725 213 2448 61 
Q 2172 -91 1784 -91 
Q 1150 -91 751 415 
Q 353 922 353 1747 
Q 353 2572 751 3078 
Q 1150 3584 1784 3584 
Q 2172 3584 2448 3432 
Q 2725 3281 2906 2969 
z
M 947 1747 
Q 947 1113 1208 752 
Q 1469 391 1925 391 
Q 2381 391 2643 752 
Q 2906 1113 2906 1747 
Q 2906 2381 2643 2742 
Q 2381 3103 1925 3103 
Q 1469 3103 1208 2742 
Q 947 2381 947 1747 
z
" transform="scale(0.015625)"/>
      <path id="DejaVuSans-44" d="M 2194 1759 
Q 1497 1759 1228 1600 
Q 959 1441 959 1056 
Q 959 750 1161 570 
Q 1363 391 1709 391 
Q 2188 391 2477 730 
Q 2766 1069 2766 1631 
L 2766 1759 
L 2194 1759 
z
M 3341 1997 
L 3341 0 
L 2766 0 
L 2766 531 
Q 2569 213 2275 61 
Q 1981 -91 1556 -91 
Q 1019 -91 701 211 
Q 384 513 384 1019 
Q 384 1609 779 1909 
Q 1175 2209 1959 2209 
L 2766 2209 
L 2766 2266 
Q 2766 2663 2505 2880 
Q 2244 3097 1772 3097 
Q 1472 3097 1187 3025 
Q 903 2953 641 2809 
L 641 3341 
Q 956 3463 1253 3523 
Q 1550 3584 1831 3584 
Q 2591 3584 2966 3190 
Q 3341 2797 3341 1997 
z
" transform="scale(0.015625)"/>
      <path id="DejaVuSans-53" d="M 1159 525 
L 1159 -1331 
L 581 -1331 
L 581 3500 
L 1159 3500 
L 1159 2969 
Q 1341 3281 1617 3432 
Q 1894 3584 2278 3584 
Q 2916 3584 3314 3078 
Q 3713 2572 3713 1747 
Q 3713 922 3314 415 
Q 2916 -91 2278 -91 
Q 1894 -91 1617 61 
Q 1341 213 1159 525 
z
M 3116 1747 
Q 3116 2381 2855 2742 
Q 2594 3103 2138 3103 
Q 1681 3103 1420 2742 
Q 1159 2381 1159 1747 
Q 1159 1113 1420 752 
Q 1681 391 2138 391 
Q 2594 391 2855 752 
Q 3116 1113 3116 1747 
z
" transform="scale(0.015625)"/>
     </defs>
     <use xlink:href="#DejaVuSans-5a"/>
     <use xlink:href="#DejaVuSans-4c" transform="translate(81.78125 0)"/>
     <use xlink:href="#DejaVuSans-47" transform="translate(109.5625 0)"/>
     <use xlink:href="#DejaVuSans-48" transform="translate(173.046875 0)"/>
     <use xlink:href="#DejaVuSans-51" transform="translate(234.578125 0)"/>
     <use xlink:href="#DejaVuSans-4c" transform="translate(297.953125 0)"/>
     <use xlink:href="#DejaVuSans-51" transform="translate(325.734375 0)"/>
     <use xlink:href="#DejaVuSans-4a" transform="translate(389.109375 0)"/>
     <use xlink:href="#DejaVuSans-3" transform="translate(452.59375 0)"/>
     <use xlink:href="#DejaVuSans-4a" transform="translate(484.375 0)"/>
     <use xlink:href="#DejaVuSans-44" transform="translate(547.859375 0)"/>
     <use xlink:href="#DejaVuSans-53" transform="translate(609.140625 0)"/>
    </g>
    <!-- at long context -->
    <g style="fill: #6b7280" transform="translate(137.023371 51.581943) scale(0.09 -0.09)">
     <use xlink:href="#DejaVuSans-44"/>
     <use xlink:href="#DejaVuSans-57" transform="translate(61.28125 0)"/>
     <use xlink:href="#DejaVuSans-3" transform="translate(100.484375 0)"/>
     <use xlink:href="#DejaVuSans-4f" transform="translate(132.265625 0)"/>
     <use xlink:href="#DejaVuSans-52" transform="translate(160.046875 0)"/>
     <use xlink:href="#DejaVuSans-51" transform="translate(221.234375 0)"/>
     <use xlink:href="#DejaVuSans-4a" transform="translate(284.609375 0)"/>
     <use xlink:href="#DejaVuSans-3" transform="translate(348.09375 0)"/>
     <use xlink:href="#DejaVuSans-46" transform="translate(379.875 0)"/>
     <use xlink:href="#DejaVuSans-52" transform="translate(434.859375 0)"/>
     <use xlink:href="#DejaVuSans-51" transform="translate(496.046875 0)"/>
     <use xlink:href="#DejaVuSans-57" transform="translate(559.421875 0)"/>
     <use xlink:href="#DejaVuSans-48" transform="translate(598.625 0)"/>
     <use xlink:href="#DejaVuSans-5b" transform="translate(658.40625 0)"/>
     <use xlink:href="#DejaVuSans-57" transform="translate(717.59375 0)"/>
    </g>
   </g>
   <g id="legend_1">
    <g id="line2d_18">
     <path d="M 36.300781 18.988594 
L 45.300781 18.988594 
L 54.300781 18.988594 
" style="fill: none; stroke: #3b82f6; stroke-width: 2; stroke-linecap: square"/>
    </g>
    <g id="text_4">
     <!-- Attention (quadratic) -->
     <g style="fill: #6b7280" transform="translate(61.500781 22.138594) scale(0.09 -0.09)">
      <defs>
       <path id="DejaVuSans-24" d="M 2188 4044 
L 1331 1722 
L 3047 1722 
L 2188 4044 
z
M 1831 4666 
L 2547 4666 
L 4325 0 
L 3669 0 
L 3244 1197 
L 1141 1197 
L 716 0 
L 50 0 
L 1831 4666 
z
" transform="scale(0.015625)"/>
       <path id="DejaVuSans-b" d="M 1984 4856 
Q 1566 4138 1362 3434 
Q 1159 2731 1159 2009 
Q 1159 1288 1364 580 
Q 1569 -128 1984 -844 
L 1484 -844 
Q 1016 -109 783 600 
Q 550 1309 550 2009 
Q 550 2706 781 3412 
Q 1013 4119 1484 4856 
L 1984 4856 
z
" transform="scale(0.015625)"/>
       <path id="DejaVuSans-55" d="M 2631 2963 
Q 2534 3019 2420 3045 
Q 2306 3072 2169 3072 
Q 1681 3072 1420 2755 
Q 1159 2438 1159 1844 
L 1159 0 
L 581 0 
L 581 3500 
L 1159 3500 
L 1159 2956 
Q 1341 3275 1631 3429 
Q 1922 3584 2338 3584 
Q 2397 3584 2469 3576 
Q 2541 3569 2628 3553 
L 2631 2963 
z
" transform="scale(0.015625)"/>
       <path id="DejaVuSans-c" d="M 513 4856 
L 1013 4856 
Q 1481 4119 1714 3412 
Q 1947 2706 1947 2009 
Q 1947 1309 1714 600 
Q 1481 -109 1013 -844 
L 513 -844 
Q 928 -128 1133 580 
Q 1338 1288 1338 2009 
Q 1338 2731 1133 3434 
Q 928 4138 513 4856 
z
" transform="scale(0.015625)"/>
      </defs>
      <use xlink:href="#DejaVuSans-24"/>
      <use xlink:href="#DejaVuSans-57" transform="translate(66.65625 0)"/>
      <use xlink:href="#DejaVuSans-57" transform="translate(105.859375 0)"/>
      <use xlink:href="#DejaVuSans-48" transform="translate(145.0625 0)"/>
      <use xlink:href="#DejaVuSans-51" transform="translate(206.59375 0)"/>
      <use xlink:href="#DejaVuSans-57" transform="translate(269.96875 0)"/>
      <use xlink:href="#DejaVuSans-4c" transform="translate(309.171875 0)"/>
      <use xlink:href="#DejaVuSans-52" transform="translate(336.953125 0)"/>
      <use xlink:href="#DejaVuSans-51" transform="translate(398.140625 0)"/>
      <use xlink:href="#DejaVuSans-3" transform="translate(461.515625 0)"/>
      <use xlink:href="#DejaVuSans-b" transform="translate(493.296875 0)"/>
      <use xlink:href="#DejaVuSans-54" transform="translate(532.3125 0)"/>
      <use xlink:href="#DejaVuSans-58" transform="translate(595.796875 0)"/>
      <use xlink:href="#DejaVuSans-44" transform="translate(659.171875 0)"/>
      <use xlink:href="#DejaVuSans-47" transform="translate(720.453125 0)"/>
      <use xlink:href="#DejaVuSans-55" transform="translate(783.9375 0)"/>
      <use xlink:href="#DejaVuSans-44" transform="translate(825.046875 0)"/>
      <use xlink:href="#DejaVuSans-57" transform="translate(886.328125 0)"/>
      <use xlink:href="#DejaVuSans-4c" transform="translate(925.53125 0)"/>
      <use xlink:href="#DejaVuSans-46" transform="translate(953.3125 0)"/>
      <use xlink:href="#DejaVuSans-c" transform="translate(1008.296875 0)"/>
     </g>
    </g>
    <g id="line2d_19">
     <path d="M 36.300781 32.489297 
L 45.300781 32.489297 
L 54.300781 32.489297 
" style="fill: none; stroke-dasharray: 7.4,3.2; stroke-dashoffset: 0; stroke: #6b7280; stroke-width: 2"/>
    </g>
    <g id="text_5">
     <!-- State-space (linear) -->
     <g style="fill: #6b7280" transform="translate(61.500781 35.639297) scale(0.09 -0.09)">
      <use xlink:href="#DejaVuSans-36"/>
      <use xlink:href="#DejaVuSans-57" transform="translate(63.484375 0)"/>
      <use xlink:href="#DejaVuSans-44" transform="translate(102.6875 0)"/>
      <use xlink:href="#DejaVuSans-57" transform="translate(163.96875 0)"/>
      <use xlink:href="#DejaVuSans-48" transform="translate(203.171875 0)"/>
      <use xlink:href="#DejaVuSans-10" transform="translate(264.703125 0)"/>
      <use xlink:href="#DejaVuSans-56" transform="translate(300.78125 0)"/>
      <use xlink:href="#DejaVuSans-53" transform="translate(352.875 0)"/>
      <use xlink:href="#DejaVuSans-44" transform="translate(416.359375 0)"/>
      <use xlink:href="#DejaVuSans-46" transform="translate(477.640625 0)"/>
      <use xlink:href="#DejaVuSans-48" transform="translate(532.625 0)"/>
      <use xlink:href="#DejaVuSans-3" transform="translate(594.15625 0)"/>
      <use xlink:href="#DejaVuSans-b" transform="translate(625.9375 0)"/>
      <use xlink:href="#DejaVuSans-4f" transform="translate(664.953125 0)"/>
      <use xlink:href="#DejaVuSans-4c" transform="translate(692.734375 0)"/>
      <use xlink:href="#DejaVuSans-51" transform="translate(720.515625 0)"/>
      <use xlink:href="#DejaVuSans-48" transform="translate(783.890625 0)"/>
      <use xlink:href="#DejaVuSans-44" transform="translate(845.421875 0)"/>
      <use xlink:href="#DejaVuSans-55" transform="translate(906.703125 0)"/>
      <use xlink:href="#DejaVuSans-c" transform="translate(947.8125 0)"/>
     </g>
    </g>
   </g>
  </g>
 </g>
 <defs>
  <clipPath id="p9c5c1e99b4">
   <rect x="28.200781" y="7.2" width="317.399219" height="173.399219"/>
  </clipPath>
 </defs>
</svg>
