<?xml version="1.0" encoding="utf-8" standalone="no"?>
<!DOCTYPE svg PUBLIC "-//W3C//DTD SVG 1.1//EN"
  "http://www.w3.org/Graphics/SVG/1.1/DTD/svg11.dtd">
<svg xmlns:xlink="http://www.w3.org/1999/xlink" width="349.127969pt" height="207.259688pt" viewBox="0 0 349.127969 207.259688" xmlns="http://www.w3.org/2000/svg" version="1.1">
 <metadata>
  <rdf:RDF xmlns:dc="http://purl.org/dc/elements/1.1/" xmlns:cc="http://creativecommons.org/ns#" xmlns:rdf="http://www.w3.org/1999/02/22-rdf-syntax-ns#">
   <cc:Work>
    <dc:type rdf:resource="http://purl.org/dc/dcmitype/StillImage"/>
    <dc:date>2026-06-22T11:57:20.919731</dc:date>
    <dc:format>image/svg+xml</dc:format>
    <dc:creator>
     <cc:Agent>
      <dc:title>Matplotlib v3.10.8, https://matplotlib.org/</dc:title>
     </cc:Agent>
    </dc:creator>
   </cc:Work>
  </rdf:RDF>
 </metadata>
 <defs>
  <style type="text/css">*{stroke-linejoin: round; stroke-linecap: butt}</style>
 </defs>
 <g id="figure_1">
  <g id="patch_1">
   <path d="M -0 207.259688 
L 349.127969 207.259688 
L 349.127969 0 
L -0 0 
L -0 207.259688 
z
" style="fill: none"/>
  </g>
  <g id="axes_1">
   <g id="patch_2">
    <path d="M 41.442188 170.459688 
L 335.002187 170.459688 
L 335.002187 11.179688 
L 41.442188 11.179688 
L 41.442188 170.459688 
z
" style="fill: none"/>
   </g>
   <g id="matplotlib.axis_1">
    <g id="xtick_1">
     <g id="line2d_1">
      <path d="M 41.442188 170.459688 
L 41.442188 11.179688 
" clip-path="url(#p966bdeb2ad)" style="fill: none; stroke: #6b7280; stroke-opacity: 0.12; stroke-width: 0.8; stroke-linecap: square"/>
     </g>
     <g id="line2d_2">
      <defs>
       <path id="ma06eddaf6c" d="M 0 0 
L 0 3.5 
" style="stroke: #6b7280; stroke-width: 0.8"/>
      </defs>
      <g>
       <use xlink:href="#ma06eddaf6c" x="41.442188" y="170.459688" style="fill: #6b7280; stroke: #6b7280; stroke-width: 0.8"/>
      </g>
     </g>
     <g id="text_1">
      <text style="font-size: 10px; font-family: 'PingFang SC', 'Heiti SC', 'STHeiti', 'Noto Sans CJK SC', 'Microsoft YaHei', 'SimHei', 'Arial Unicode MS', 'DejaVu Sans', sans-serif; text-anchor: middle; fill: #6b7280" x="41.442188" y="185.419062" transform="rotate(-0 41.442188 185.419062)">0.0</text>
     </g>
    </g>
    <g id="xtick_2">
     <g id="line2d_3">
      <path d="M 100.154188 170.459688 
L 100.154188 11.179688 
" clip-path="url(#p966bdeb2ad)" style="fill: none; stroke: #6b7280; stroke-opacity: 0.12; stroke-width: 0.8; stroke-linecap: square"/>
     </g>
     <g id="line2d_4">
      <g>
       <use xlink:href="#ma06eddaf6c" x="100.154188" y="170.459688" style="fill: #6b7280; stroke: #6b7280; stroke-width: 0.8"/>
      </g>
     </g>
     <g id="text_2">
      <text style="font-size: 10px; font-family: 'PingFang SC', 'Heiti SC', 'STHeiti', 'Noto Sans CJK SC', 'Microsoft YaHei', 'SimHei', 'Arial Unicode MS', 'DejaVu Sans', sans-serif; text-anchor: middle; fill: #6b7280" x="100.154188" y="185.419062" transform="rotate(-0 100.154188 185.419062)">0.2</text>
     </g>
    </g>
    <g id="xtick_3">
     <g id="line2d_5">
      <path d="M 158.866188 170.459688 
L 158.866188 11.179688 
" clip-path="url(#p966bdeb2ad)" style="fill: none; stroke: #6b7280; stroke-opacity: 0.12; stroke-width: 0.8; stroke-linecap: square"/>
     </g>
     <g id="line2d_6">
      <g>
       <use xlink:href="#ma06eddaf6c" x="158.866188" y="170.459688" style="fill: #6b7280; stroke: #6b7280; stroke-width: 0.8"/>
      </g>
     </g>
     <g id="text_3">
      <text style="font-size: 10px; font-family: 'PingFang SC', 'Heiti SC', 'STHeiti', 'Noto Sans CJK SC', 'Microsoft YaHei', 'SimHei', 'Arial Unicode MS', 'DejaVu Sans', sans-serif; text-anchor: middle; fill: #6b7280" x="158.866188" y="185.419062" transform="rotate(-0 158.866188 185.419062)">0.4</text>
     </g>
    </g>
    <g id="xtick_4">
     <g id="line2d_7">
      <path d="M 217.578188 170.459688 
L 217.578188 11.179688 
" clip-path="url(#p966bdeb2ad)" style="fill: none; stroke: #6b7280; stroke-opacity: 0.12; stroke-width: 0.8; stroke-linecap: square"/>
     </g>
     <g id="line2d_8">
      <g>
       <use xlink:href="#ma06eddaf6c" x="217.578188" y="170.459688" style="fill: #6b7280; stroke: #6b7280; stroke-width: 0.8"/>
      </g>
     </g>
     <g id="text_4">
      <text style="font-size: 10px; font-family: 'PingFang SC', 'Heiti SC', 'STHeiti', 'Noto Sans CJK SC', 'Microsoft YaHei', 'SimHei', 'Arial Unicode MS', 'DejaVu Sans', sans-serif; text-anchor: middle; fill: #6b7280" x="217.578188" y="185.419062" transform="rotate(-0 217.578188 185.419062)">0.6</text>
     </g>
    </g>
    <g id="xtick_5">
     <g id="line2d_9">
      <path d="M 276.290188 170.459688 
L 276.290188 11.179688 
" clip-path="url(#p966bdeb2ad)" style="fill: none; stroke: #6b7280; stroke-opacity: 0.12; stroke-width: 0.8; stroke-linecap: square"/>
     </g>
     <g id="line2d_10">
      <g>
       <use xlink:href="#ma06eddaf6c" x="276.290188" y="170.459688" style="fill: #6b7280; stroke: #6b7280; stroke-width: 0.8"/>
      </g>
     </g>
     <g id="text_5">
      <text style="font-size: 10px; font-family: 'PingFang SC', 'Heiti SC', 'STHeiti', 'Noto Sans CJK SC', 'Microsoft YaHei', 'SimHei', 'Arial Unicode MS', 'DejaVu Sans', sans-serif; text-anchor: middle; fill: #6b7280" x="276.290188" y="185.419062" transform="rotate(-0 276.290188 185.419062)">0.8</text>
     </g>
    </g>
    <g id="xtick_6">
     <g id="line2d_11">
      <path d="M 335.002187 170.459688 
L 335.002187 11.179688 
" clip-path="url(#p966bdeb2ad)" style="fill: none; stroke: #6b7280; stroke-opacity: 0.12; stroke-width: 0.8; stroke-linecap: square"/>
     </g>
     <g id="line2d_12">
      <g>
       <use xlink:href="#ma06eddaf6c" x="335.002187" y="170.459688" style="fill: #6b7280; stroke: #6b7280; stroke-width: 0.8"/>
      </g>
     </g>
     <g id="text_6">
      <text style="font-size: 10px; font-family: 'PingFang SC', 'Heiti SC', 'STHeiti', 'Noto Sans CJK SC', 'Microsoft YaHei', 'SimHei', 'Arial Unicode MS', 'DejaVu Sans', sans-serif; text-anchor: middle; fill: #6b7280" x="335.002187" y="185.419062" transform="rotate(-0 335.002187 185.419062)">1.0</text>
     </g>
    </g>
    <g id="text_7">
     <text style="font-size: 10px; font-family: 'PingFang SC', 'Heiti SC', 'STHeiti', 'Noto Sans CJK SC', 'Microsoft YaHei', 'SimHei', 'Arial Unicode MS', 'DejaVu Sans', sans-serif; text-anchor: middle; fill: #6b7280" x="188.222188" y="198.719063" transform="rotate(-0 188.222188 198.719063)">自主性</text>
    </g>
   </g>
   <g id="matplotlib.axis_2">
    <g id="ytick_1">
     <g id="line2d_13">
      <path d="M 41.442188 170.459688 
L 335.002187 170.459688 
" clip-path="url(#p966bdeb2ad)" style="fill: none; stroke: #6b7280; stroke-opacity: 0.12; stroke-width: 0.8; stroke-linecap: square"/>
     </g>
     <g id="line2d_14">
      <defs>
       <path id="m6c2457f88f" d="M 0 0 
L -3.5 0 
" style="stroke: #6b7280; stroke-width: 0.8"/>
      </defs>
      <g>
       <use xlink:href="#m6c2457f88f" x="41.442188" y="170.459688" style="fill: #6b7280; stroke: #6b7280; stroke-width: 0.8"/>
      </g>
     </g>
     <g id="text_8">
      <text style="font-size: 10px; font-family: 'PingFang SC', 'Heiti SC', 'STHeiti', 'Noto Sans CJK SC', 'Microsoft YaHei', 'SimHei', 'Arial Unicode MS', 'DejaVu Sans', sans-serif; text-anchor: end; fill: #6b7280" x="34.442188" y="174.439375" transform="rotate(-0 34.442188 174.439375)">0.0</text>
     </g>
    </g>
    <g id="ytick_2">
     <g id="line2d_15">
      <path d="M 41.442188 138.603688 
L 335.002187 138.603688 
" clip-path="url(#p966bdeb2ad)" style="fill: none; stroke: #6b7280; stroke-opacity: 0.12; stroke-width: 0.8; stroke-linecap: square"/>
     </g>
     <g id="line2d_16">
      <g>
       <use xlink:href="#m6c2457f88f" x="41.442188" y="138.603688" style="fill: #6b7280; stroke: #6b7280; stroke-width: 0.8"/>
      </g>
     </g>
     <g id="text_9">
      <text style="font-size: 10px; font-family: 'PingFang SC', 'Heiti SC', 'STHeiti', 'Noto Sans CJK SC', 'Microsoft YaHei', 'SimHei', 'Arial Unicode MS', 'DejaVu Sans', sans-serif; text-anchor: end; fill: #6b7280" x="34.442188" y="142.583375" transform="rotate(-0 34.442188 142.583375)">0.2</text>
     </g>
    </g>
    <g id="ytick_3">
     <g id="line2d_17">
      <path d="M 41.442188 106.747687 
L 335.002187 106.747687 
" clip-path="url(#p966bdeb2ad)" style="fill: none; stroke: #6b7280; stroke-opacity: 0.12; stroke-width: 0.8; stroke-linecap: square"/>
     </g>
     <g id="line2d_18">
      <g>
       <use xlink:href="#m6c2457f88f" x="41.442188" y="106.747687" style="fill: #6b7280; stroke: #6b7280; stroke-width: 0.8"/>
      </g>
     </g>
     <g id="text_10">
      <text style="font-size: 10px; font-family: 'PingFang SC', 'Heiti SC', 'STHeiti', 'Noto Sans CJK SC', 'Microsoft YaHei', 'SimHei', 'Arial Unicode MS', 'DejaVu Sans', sans-serif; text-anchor: end; fill: #6b7280" x="34.442188" y="110.727375" transform="rotate(-0 34.442188 110.727375)">0.4</text>
     </g>
    </g>
    <g id="ytick_4">
     <g id="line2d_19">
      <path d="M 41.442188 74.891687 
L 335.002187 74.891687 
" clip-path="url(#p966bdeb2ad)" style="fill: none; stroke: #6b7280; stroke-opacity: 0.12; stroke-width: 0.8; stroke-linecap: square"/>
     </g>
     <g id="line2d_20">
      <g>
       <use xlink:href="#m6c2457f88f" x="41.442188" y="74.891687" style="fill: #6b7280; stroke: #6b7280; stroke-width: 0.8"/>
      </g>
     </g>
     <g id="text_11">
      <text style="font-size: 10px; font-family: 'PingFang SC', 'Heiti SC', 'STHeiti', 'Noto Sans CJK SC', 'Microsoft YaHei', 'SimHei', 'Arial Unicode MS', 'DejaVu Sans', sans-serif; text-anchor: end; fill: #6b7280" x="34.442188" y="78.871375" transform="rotate(-0 34.442188 78.871375)">0.6</text>
     </g>
    </g>
    <g id="ytick_5">
     <g id="line2d_21">
      <path d="M 41.442188 43.035687 
L 335.002187 43.035687 
" clip-path="url(#p966bdeb2ad)" style="fill: none; stroke: #6b7280; stroke-opacity: 0.12; stroke-width: 0.8; stroke-linecap: square"/>
     </g>
     <g id="line2d_22">
      <g>
       <use xlink:href="#m6c2457f88f" x="41.442188" y="43.035687" style="fill: #6b7280; stroke: #6b7280; stroke-width: 0.8"/>
      </g>
     </g>
     <g id="text_12">
      <text style="font-size: 10px; font-family: 'PingFang SC', 'Heiti SC', 'STHeiti', 'Noto Sans CJK SC', 'Microsoft YaHei', 'SimHei', 'Arial Unicode MS', 'DejaVu Sans', sans-serif; text-anchor: end; fill: #6b7280" x="34.442188" y="47.015375" transform="rotate(-0 34.442188 47.015375)">0.8</text>
     </g>
    </g>
    <g id="ytick_6">
     <g id="line2d_23">
      <path d="M 41.442188 11.179688 
L 335.002187 11.179688 
" clip-path="url(#p966bdeb2ad)" style="fill: none; stroke: #6b7280; stroke-opacity: 0.12; stroke-width: 0.8; stroke-linecap: square"/>
     </g>
     <g id="line2d_24">
      <g>
       <use xlink:href="#m6c2457f88f" x="41.442188" y="11.179688" style="fill: #6b7280; stroke: #6b7280; stroke-width: 0.8"/>
      </g>
     </g>
     <g id="text_13">
      <text style="font-size: 10px; font-family: 'PingFang SC', 'Heiti SC', 'STHeiti', 'Noto Sans CJK SC', 'Microsoft YaHei', 'SimHei', 'Arial Unicode MS', 'DejaVu Sans', sans-serif; text-anchor: end; fill: #6b7280" x="34.442188" y="15.159375" transform="rotate(-0 34.442188 15.159375)">1.0</text>
     </g>
    </g>
    <g id="text_14">
     <text style="font-size: 10px; font-family: 'PingFang SC', 'Heiti SC', 'STHeiti', 'Noto Sans CJK SC', 'Microsoft YaHei', 'SimHei', 'Arial Unicode MS', 'DejaVu Sans', sans-serif; text-anchor: middle; fill: #6b7280" x="15.25" y="90.819688" transform="rotate(-90 15.25 90.819688)">影响半径</text>
    </g>
   </g>
   <g id="patch_3">
    <path d="M 41.442188 170.459688 
L 41.442188 11.179688 
" style="fill: none; stroke: #6b7280; stroke-width: 0.8; stroke-linejoin: miter; stroke-linecap: square"/>
   </g>
   <g id="patch_4">
    <path d="M 41.442188 170.459688 
L 335.002187 170.459688 
" style="fill: none; stroke: #6b7280; stroke-width: 0.8; stroke-linejoin: miter; stroke-linecap: square"/>
   </g>
   <g id="PathCollection_1">
    <defs>
     <path id="mb15794b400" d="M 0 3.24037 
C 0.859356 3.24037 1.683631 2.898944 2.291288 2.291288 
C 2.898944 1.683631 3.24037 0.859356 3.24037 0 
C 3.24037 -0.859356 2.898944 -1.683631 2.291288 -2.291288 
C 1.683631 -2.898944 0.859356 -3.24037 0 -3.24037 
C -0.859356 -3.24037 -1.683631 -2.898944 -2.291288 -2.291288 
C -2.898944 -1.683631 -3.24037 -0.859356 -3.24037 0 
C -3.24037 0.859356 -2.898944 1.683631 -2.291288 2.291288 
C -1.683631 2.898944 -0.859356 3.24037 0 3.24037 
z
" style="stroke: #9ca3af"/>
    </defs>
    <g clip-path="url(#p966bdeb2ad)">
     <use xlink:href="#mb15794b400" x="76.669387" y="141.789288" style="fill: #9ca3af; stroke: #9ca3af"/>
    </g>
   </g>
   <g id="text_15">
    <text style="font-size: 8px; font-family: 'PingFang SC', 'Heiti SC', 'STHeiti', 'Noto Sans CJK SC', 'Microsoft YaHei', 'SimHei', 'Arial Unicode MS', 'DejaVu Sans', sans-serif; text-anchor: start; fill: #6b7280" x="84.008387" y="138.603688" transform="rotate(-0 84.008387 138.603688)">聊天</text>
   </g>
   <g id="PathCollection_2">
    <defs>
     <path id="mf1b376cf03" d="M 0 3.24037 
C 0.859356 3.24037 1.683631 2.898944 2.291288 2.291288 
C 2.898944 1.683631 3.24037 0.859356 3.24037 0 
C 3.24037 -0.859356 2.898944 -1.683631 2.291288 -2.291288 
C 1.683631 -2.898944 0.859356 -3.24037 0 -3.24037 
C -0.859356 -3.24037 -1.683631 -2.898944 -2.291288 -2.291288 
C -2.898944 -1.683631 -3.24037 -0.859356 -3.24037 0 
C -3.24037 0.859356 -2.898944 1.683631 -2.291288 2.291288 
C -1.683631 2.898944 -0.859356 3.24037 0 3.24037 
z
" style="stroke: #3b82f6"/>
    </defs>
    <g clip-path="url(#p966bdeb2ad)">
     <use xlink:href="#mf1b376cf03" x="147.123787" y="109.933288" style="fill: #3b82f6; stroke: #3b82f6"/>
    </g>
   </g>
   <g id="text_16">
    <text style="font-size: 8px; font-family: 'PingFang SC', 'Heiti SC', 'STHeiti', 'Noto Sans CJK SC', 'Microsoft YaHei', 'SimHei', 'Arial Unicode MS', 'DejaVu Sans', sans-serif; text-anchor: start; fill: #6b7280" x="154.462787" y="106.747688" transform="rotate(-0 154.462787 106.747688)">工具使用</text>
   </g>
   <g id="PathCollection_3">
    <defs>
     <path id="m8b9355a905" d="M 0 3.24037 
C 0.859356 3.24037 1.683631 2.898944 2.291288 2.291288 
C 2.898944 1.683631 3.24037 0.859356 3.24037 0 
C 3.24037 -0.859356 2.898944 -1.683631 2.291288 -2.291288 
C 1.683631 -2.898944 0.859356 -3.24037 0 -3.24037 
C -0.859356 -3.24037 -1.683631 -2.898944 -2.291288 -2.291288 
C -2.898944 -1.683631 -3.24037 -0.859356 -3.24037 0 
C -3.24037 0.859356 -2.898944 1.683631 -2.291288 2.291288 
C -1.683631 2.898944 -0.859356 3.24037 0 3.24037 
z
" style="stroke: #14b8a6"/>
    </defs>
    <g clip-path="url(#p966bdeb2ad)">
     <use xlink:href="#m8b9355a905" x="211.706987" y="78.077288" style="fill: #14b8a6; stroke: #14b8a6"/>
    </g>
   </g>
   <g id="text_17">
    <text style="font-size: 8px; font-family: 'PingFang SC', 'Heiti SC', 'STHeiti', 'Noto Sans CJK SC', 'Microsoft YaHei', 'SimHei', 'Arial Unicode MS', 'DejaVu Sans', sans-serif; text-anchor: start; fill: #6b7280" x="219.045988" y="74.891688" transform="rotate(-0 219.045988 74.891688)">规划器</text>
   </g>
   <g id="PathCollection_4">
    <defs>
     <path id="m303f5798e4" d="M 0 3.24037 
C 0.859356 3.24037 1.683631 2.898944 2.291288 2.291288 
C 2.898944 1.683631 3.24037 0.859356 3.24037 0 
C 3.24037 -0.859356 2.898944 -1.683631 2.291288 -2.291288 
C 1.683631 -2.898944 0.859356 -3.24037 0 -3.24037 
C -0.859356 -3.24037 -1.683631 -2.898944 -2.291288 -2.291288 
C -2.898944 -1.683631 -3.24037 -0.859356 -3.24037 0 
C -3.24037 0.859356 -2.898944 1.683631 -2.291288 2.291288 
C -1.683631 2.898944 -0.859356 3.24037 0 3.24037 
z
" style="stroke: #f59e0b"/>
    </defs>
    <g clip-path="url(#p966bdeb2ad)">
     <use xlink:href="#m303f5798e4" x="282.161387" y="39.850088" style="fill: #f59e0b; stroke: #f59e0b"/>
    </g>
   </g>
   <g id="text_18">
    <text style="font-size: 8px; font-family: 'PingFang SC', 'Heiti SC', 'STHeiti', 'Noto Sans CJK SC', 'Microsoft YaHei', 'SimHei', 'Arial Unicode MS', 'DejaVu Sans', sans-serif; text-anchor: end; fill: #6b7280" x="274.822387" y="36.664488" transform="rotate(-0 274.822387 36.664488)">自主运行</text>
   </g>
  </g>
 </g>
 <defs>
  <clipPath id="p966bdeb2ad">
   <rect x="41.442188" y="11.179688" width="293.56" height="159.28"/>
  </clipPath>
 </defs>
</svg>
